####
#
# OBJ File Generated by Meshlab
#
####
# Object IRL_lab_robot_body.obj
#
# Vertices: 52
# Faces: 100
#
####
mtllib ./IRL_lab_robot_body.obj.mtl

vn -5.516421 -0.769901 -1.675147
v -17.080601 -6.935480 -59.799999 0.749020 0.749020 0.749020
vn -3.088122 -0.406345 2.879931
v -17.080601 -6.935480 0.000000 0.749020 0.749020 0.749020
vn -5.515331 0.770552 -1.676637
v -17.080601 6.564520 -59.799999 0.749020 0.749020 0.749020
vn -3.088198 0.406058 2.880118
v -17.080601 6.564520 0.000000 0.749020 0.749020 0.749020
vn -4.677685 2.775461 -1.419039
v -17.013700 6.814520 -59.779598 0.749020 0.749020 0.749020
vn -2.627857 1.517056 2.617424
v -17.013700 6.814520 0.000000 0.749020 0.749020 0.749020
vn -4.680800 -2.776333 -1.415750
v -16.946699 -7.435480 -59.759201 0.749020 0.749020 0.749020
vn -2.627945 -1.517171 2.617764
v -16.946699 -7.435480 0.000000 0.749020 0.749020 0.749020
vn -2.917669 5.005569 -0.882871
v -16.830601 6.997530 -59.723900 0.749020 0.749020 0.749020
vn -1.517016 2.628263 2.618248
v -16.830601 6.997530 0.000000 0.749020 0.749020 0.749020
vn -2.919887 -5.006700 -0.878373
v -16.580601 -7.801510 -59.647800 0.749020 0.749020 0.749020
vn -1.517158 -2.628108 2.618080
v -16.580601 -7.801510 0.000000 0.749020 0.749020 0.749020
vn -0.879362 6.138146 -0.264537
v -16.580601 7.064520 -59.647800 0.749020 0.749020 0.749020
vn -0.406567 3.088065 2.879783
v -16.580601 7.064520 0.000000 0.749020 0.749020 0.749020
vn -0.879001 -6.138712 -0.261317
v -16.080601 -7.935480 -59.495701 0.749020 0.749020 0.749020
vn -0.406540 -3.088073 2.879801
v -16.080601 -7.935480 0.000000 0.749020 0.749020 0.749020
vn -2.499574 -0.572336 -4.686279
v -11.580600 -6.935480 -68.000000 0.749020 0.749020 0.749020
vn -2.499370 0.572870 -4.686079
v -11.580600 6.564520 -68.000000 0.749020 0.749020 0.749020
vn -2.249745 2.078220 -4.219292
v -11.560300 6.755860 -67.961899 0.749020 0.749020 0.749020
vn -2.248924 -2.077622 -4.219795
v -11.540000 -7.318170 -67.923897 0.749020 0.749020 0.749020
vn -1.813822 3.983406 -3.406362
v -11.502500 6.918070 -67.853600 0.749020 0.749020 0.749020
vn -1.812388 -3.985282 -3.408042
v -11.424400 -7.642590 -67.707100 0.749020 0.749020 0.749020
vn -1.091746 5.443394 -2.050895
v -11.416000 7.026460 -67.691299 0.749020 0.749020 0.749020
vn -0.332734 6.188220 -0.623699
v -11.314000 7.064520 -67.500000 0.749020 0.749020 0.749020
vn -1.089618 -5.443853 -2.051961
v -11.251400 -7.859360 -67.382698 0.749020 0.749020 0.749020
vn -0.332604 -6.188281 -0.623536
v -11.047300 -7.935480 -67.000000 0.749020 0.749020 0.749020
vn 0.332599 -6.188277 -0.623536
v 12.086000 -7.935480 -67.000000 0.749020 0.749020 0.749020
vn 1.089605 -5.443861 -2.051965
v 12.290100 -7.859360 -67.382698 0.749020 0.749020 0.749020
vn 0.332729 6.188221 -0.623700
v 12.352700 7.064520 -67.500000 0.749020 0.749020 0.749020
vn 1.091734 5.443401 -2.050900
v 12.454700 7.026460 -67.691299 0.749020 0.749020 0.749020
vn 1.812130 -3.985588 -3.408060
v 12.463100 -7.642590 -67.707100 0.749020 0.749020 0.749020
vn 1.813298 3.984033 -3.406408
v 12.541200 6.918070 -67.853600 0.749020 0.749020 0.749020
vn 2.248937 -2.077777 -4.219606
v 12.578800 -7.318170 -67.923897 0.749020 0.749020 0.749020
vn 2.249762 2.078516 -4.218902
v 12.599100 6.755860 -67.961899 0.749020 0.749020 0.749020
vn 2.499574 -0.572337 -4.686277
v 12.619400 -6.935480 -68.000000 0.749020 0.749020 0.749020
vn 2.499370 0.572869 -4.686072
v 12.619400 6.564520 -68.000000 0.749020 0.749020 0.749020
vn 0.879001 -6.138711 -0.261322
v 17.119400 -7.935480 -59.495701 0.749020 0.749020 0.749020
vn 0.406540 -3.088073 2.879802
v 17.119400 -7.935480 0.000000 0.749020 0.749020 0.749020
vn 2.920147 -5.006350 -0.878430
v 17.619400 -7.801510 -59.647800 0.749020 0.749020 0.749020
vn 1.517309 -2.627957 2.617944
v 17.619400 -7.801510 0.000000 0.749020 0.749020 0.749020
vn 0.879362 6.138145 -0.264543
v 17.619400 7.064520 -59.647800 0.749020 0.749020 0.749020
vn 0.406567 3.088065 2.879783
v 17.619400 7.064520 0.000000 0.749020 0.749020 0.749020
vn 2.918195 5.004877 -0.882978
v 17.869400 6.997530 -59.723900 0.749020 0.749020 0.749020
vn 1.517317 2.627962 2.617978
v 17.869400 6.997530 0.000000 0.749020 0.749020 0.749020
vn 4.680999 -2.776708 -1.415853
v 17.985399 -7.435480 -59.759201 0.749020 0.749020 0.749020
vn 2.628021 -1.517302 2.618084
v 17.985399 -7.435480 0.000000 0.749020 0.749020 0.749020
vn 4.678067 2.776194 -1.419251
v 18.052401 6.814520 -59.779598 0.749020 0.749020 0.749020
vn 2.628009 1.517317 2.618065
v 18.052401 6.814520 0.000000 0.749020 0.749020 0.749020
vn 5.516225 -0.770358 -1.675051
v 18.119400 -6.935480 -59.799999 0.749020 0.749020 0.749020
vn 3.088053 -0.406627 2.879745
v 18.119400 -6.935480 0.000000 0.749020 0.749020 0.749020
vn 5.514935 0.771473 -1.676452
v 18.119400 6.564520 -59.799999 0.749020 0.749020 0.749020
vn 3.088048 0.406620 2.879746
v 18.119400 6.564520 0.000000 0.749020 0.749020 0.749020
# 52 vertices, 0 vertices normals


usemtl material_0
vt 0.000000 0.843750
vt 0.000560 0.843173
vt 0.120588 1.000000
f 36/1/36 34/2/34 51/3/51
vt 0.120888 0.998097
f 51/3/51 34/2/34 47/4/47
vt 0.002154 0.841531
f 47/4/47 34/2/34 32/5/32
vt 0.121707 0.992898
f 47/4/47 32/5/32 43/6/43
vt 0.004539 0.839073
f 43/6/43 32/5/32 30/7/30
vt 0.122826 0.985795
f 43/6/43 30/7/30 41/8/41
vt 0.007353 0.836174
f 41/8/41 30/7/30 29/9/29
vt 0.120588 0.000000
vt 1.000000 0.000000
vt 0.120888 0.001903
f 3/10/3 4/11/4 5/12/5
vt 1.000000 0.001903
f 5/12/5 4/11/4 6/13/6
vt 0.121707 0.007102
f 5/12/5 6/13/6 9/14/9
vt 1.000000 0.007102
f 9/14/9 6/13/6 10/15/10
vt 0.122826 0.014205
f 9/14/9 10/15/10 13/16/13
vt 1.000000 0.014205
f 13/16/13 10/15/10 14/17/14
vt 0.000000 0.156250
f 36/1/36 18/18/18 34/2/34
vt 0.000560 0.156827
f 34/2/34 18/18/18 19/19/19
vt 0.002154 0.158469
f 34/2/34 19/19/19 21/20/21
f 34/2/34 21/20/21 32/5/32
vt 0.004539 0.160927
f 32/5/32 21/20/21 23/21/23
f 32/5/32 23/21/23 30/7/30
f 30/7/30 23/21/23 29/9/29
vt 0.007353 0.163826
f 29/9/29 23/21/23 24/22/24
f 24/22/24 23/21/23 13/16/13
f 13/16/13 23/21/23 9/14/9
f 9/14/9 23/21/23 21/20/21
f 9/14/9 21/20/21 5/12/5
f 5/12/5 21/20/21 19/19/19
f 5/12/5 19/19/19 3/10/3
f 3/10/3 19/19/19 18/18/18
vt 1.000000 0.985795
vt 1.000000 0.992898
f 42/23/42 44/24/44 41/8/41
f 41/8/41 44/24/44 43/6/43
vt 1.000000 0.998097
f 43/6/43 44/24/44 48/25/48
f 43/6/43 48/25/48 47/4/47
vt 1.000000 1.000000
f 47/4/47 48/25/48 52/26/52
f 47/4/47 52/26/52 51/3/51
f 41/8/41 29/9/29 42/23/42
f 42/23/42 29/9/29 24/22/24
f 42/23/42 24/22/24 14/17/14
f 14/17/14 24/22/24 13/16/13
vt 1.000000 0.996194
vt 1.000000 0.971591
f 40/23/40 46/27/46 38/28/38
f 38/28/38 46/27/46 50/26/50
f 38/28/38 50/26/50 2/11/2
f 2/11/2 50/26/50 4/11/4
f 4/11/4 50/26/50 52/26/52
f 4/11/4 52/26/52 14/17/14
f 14/17/14 52/26/52 42/23/42
f 42/23/42 52/26/52 48/25/48
f 42/23/42 48/25/48 44/24/44
f 10/15/10 6/13/6 14/17/14
f 14/17/14 6/13/6 4/11/4
vt 1.000000 0.028409
f 38/28/38 2/11/2 16/29/16
vt 1.000000 0.003806
f 16/29/16 2/11/2 8/30/8
f 16/29/16 8/30/8 12/17/12
vt 0.125063 0.971591
vt 0.014706 0.828597
f 37/31/37 38/28/38 27/32/27
f 27/32/27 38/28/38 16/29/16
vt 0.014706 0.171403
f 27/32/27 16/29/16 26/33/26
vt 0.125063 0.028409
f 26/33/26 16/29/16 15/34/15
f 49/3/49 51/3/51 50/26/50
f 50/26/50 51/3/51 52/26/52
f 49/3/49 35/1/35 51/3/51
f 51/3/51 35/1/35 36/1/36
f 35/1/35 17/18/17 36/1/36
f 36/1/36 17/18/17 18/18/18
f 17/18/17 1/10/1 18/18/18
f 18/18/18 1/10/1 3/10/3
f 2/11/2 4/11/4 1/10/1
f 1/10/1 4/11/4 3/10/3
vt 0.001119 0.157403
f 17/18/17 35/1/35 20/35/20
vt 0.001119 0.842597
f 20/35/20 35/1/35 33/36/33
vt 0.004307 0.839312
f 20/35/20 33/36/33 31/37/31
vt 0.004307 0.160688
f 20/35/20 31/37/31 22/38/22
vt 0.009078 0.834396
f 22/38/22 31/37/31 28/39/28
vt 0.009078 0.165604
f 22/38/22 28/39/28 25/40/25
f 25/40/25 28/39/28 26/33/26
f 26/33/26 28/39/28 27/32/27
f 27/32/27 28/39/28 37/31/37
f 37/31/37 28/39/28 39/8/39
f 39/8/39 28/39/28 31/37/31
vt 0.121188 0.996194
f 39/8/39 31/37/31 45/41/45
f 45/41/45 31/37/31 33/36/33
f 45/41/45 33/36/33 49/3/49
f 49/3/49 33/36/33 35/1/35
f 17/18/17 20/35/20 1/10/1
vt 0.121188 0.003806
f 1/10/1 20/35/20 7/42/7
f 7/42/7 20/35/20 22/38/22
f 7/42/7 22/38/22 11/16/11
f 11/16/11 22/38/22 25/40/25
f 11/16/11 25/40/25 15/34/15
f 15/34/15 25/40/25 26/33/26
f 49/3/49 50/26/50 45/41/45
f 45/41/45 50/26/50 46/27/46
f 45/41/45 46/27/46 39/8/39
f 39/8/39 46/27/46 40/23/40
f 39/8/39 40/23/40 37/31/37
f 37/31/37 40/23/40 38/28/38
f 16/29/16 12/17/12 15/34/15
f 15/34/15 12/17/12 11/16/11
f 11/16/11 12/17/12 8/30/8
f 11/16/11 8/30/8 7/42/7
f 7/42/7 8/30/8 2/11/2
f 7/42/7 2/11/2 1/10/1
# 100 faces, 42 coords texture

# End of File
