####
#
# OBJ File Generated by Meshlab
#
####
# Object robot_body_back.obj
#
# Vertices: 52
# Faces: 100
#
####
mtllib ./robot_body_back.obj.mtl

vn -5.516306 -0.770189 -1.675058
v -170.806442 -69.354836 -598.000000 0.749020 0.749020 0.749020
vn -3.088067 -0.406549 2.879797
v -170.806442 -69.354836 0.000000 0.749020 0.749020 0.749020
vn -5.515013 0.771303 -1.676452
v -170.806442 65.645164 -598.000000 0.749020 0.749020 0.749020
vn -3.088081 0.406548 2.879798
v -170.806442 65.645164 0.000000 0.749020 0.749020 0.749020
vn -4.678047 2.776033 -1.419255
v -170.136581 68.145164 -597.796143 0.749020 0.749020 0.749020
vn -2.627995 1.517275 2.617985
v -170.136581 68.145164 0.000000 0.749020 0.749020 0.749020
vn -4.680934 -2.776547 -1.415858
v -169.466705 -74.354836 -597.592346 0.749020 0.749020 0.749020
vn -2.627994 -1.517273 2.617991
v -169.466705 -74.354836 0.000000 0.749020 0.749020 0.749020
vn -2.918140 5.004946 -0.882962
v -168.306442 69.975288 -597.239197 0.749020 0.749020 0.749020
vn -1.517270 2.627999 2.617999
v -168.306442 69.975288 0.000000 0.749020 0.749020 0.749020
vn -2.920069 -5.006452 -0.878430
v -165.806442 -78.015091 -596.478455 0.749020 0.749020 0.749020
vn -1.517271 -2.627995 2.617995
v -165.806442 -78.015091 0.000000 0.749020 0.749020 0.749020
vn -0.879350 6.138146 -0.264557
v -165.806442 70.645164 -596.478455 0.749020 0.749020 0.749020
vn -0.406554 3.088069 2.879790
v -165.806442 70.645164 0.000000 0.749020 0.749020 0.749020
vn -0.879006 -6.138705 -0.261300
v -160.806442 -79.354836 -594.956909 0.749020 0.749020 0.749020
vn -0.406552 -3.088069 2.879794
v -160.806442 -79.354836 0.000000 0.749020 0.749020 0.749020
vn -2.499545 -0.572419 -4.686246
v -115.806458 -69.354836 -680.000000 0.749020 0.749020 0.749020
vn -2.499533 0.572455 -4.686229
v -115.806458 65.645164 -680.000000 0.749020 0.749020 0.749020
vn -2.249311 2.078193 -4.218821
v -115.603447 67.558578 -679.619385 0.749020 0.749020 0.749020
vn -2.248986 -2.077707 -4.219808
v -115.400452 -73.181671 -679.238831 0.749020 0.749020 0.749020
vn -1.814023 3.984339 -3.406206
v -115.025337 69.180695 -678.535522 0.749020 0.749020 0.749020
vn -1.812311 -3.985260 -3.408029
v -114.244225 -76.425903 -677.071045 0.749020 0.749020 0.749020
vn -1.091664 5.442986 -2.051322
v -114.160133 70.264557 -676.913452 0.749020 0.749020 0.749020
vn -0.332595 6.188273 -0.623555
v -113.139565 70.645164 -675.000000 0.749020 0.749020 0.749020
vn -1.089513 -5.443957 -2.051907
v -112.513817 -78.593636 -673.826843 0.749020 0.749020 0.749020
vn -0.332590 -6.188273 -0.623551
v -110.472672 -79.354836 -670.000000 0.749020 0.749020 0.749020
vn 0.332589 -6.188274 -0.623551
v 120.859764 -79.354836 -670.000000 0.749020 0.749020 0.749020
vn 1.089515 -5.443954 -2.051906
v 122.900917 -78.593636 -673.826843 0.749020 0.749020 0.749020
vn 0.332594 6.188272 -0.623554
v 123.526657 70.645164 -675.000000 0.749020 0.749020 0.749020
vn 1.091664 5.442982 -2.051318
v 124.547234 70.264557 -676.913452 0.749020 0.749020 0.749020
vn 1.812312 -3.985260 -3.408029
v 124.631317 -76.425903 -677.071045 0.749020 0.749020 0.749020
vn 1.814026 3.984339 -3.406206
v 125.412437 69.180695 -678.535522 0.749020 0.749020 0.749020
vn 2.248985 -2.077708 -4.219811
v 125.787537 -73.181671 -679.238831 0.749020 0.749020 0.749020
vn 2.249315 2.078189 -4.218825
v 125.990540 67.558578 -679.619385 0.749020 0.749020 0.749020
vn 2.499545 -0.572418 -4.686244
v 126.193542 -69.354836 -680.000000 0.749020 0.749020 0.749020
vn 2.499532 0.572452 -4.686234
v 126.193542 65.645164 -680.000000 0.749020 0.749020 0.749020
vn 0.879006 -6.138704 -0.261300
v 171.193542 -79.354836 -594.956909 0.749020 0.749020 0.749020
vn 0.406552 -3.088069 2.879795
v 171.193542 -79.354836 0.000000 0.749020 0.749020 0.749020
vn 2.920069 -5.006452 -0.878431
v 176.193542 -78.015091 -596.478455 0.749020 0.749020 0.749020
vn 1.517271 -2.627995 2.617995
v 176.193542 -78.015091 0.000000 0.749020 0.749020 0.749020
vn 0.879350 6.138146 -0.264557
v 176.193542 70.645164 -596.478455 0.749020 0.749020 0.749020
vn 0.406554 3.088069 2.879792
v 176.193542 70.645164 0.000000 0.749020 0.749020 0.749020
vn 2.918140 5.004945 -0.882962
v 178.693542 69.975288 -597.239197 0.749020 0.749020 0.749020
vn 1.517270 2.627999 2.617999
v 178.693542 69.975288 0.000000 0.749020 0.749020 0.749020
vn 4.680932 -2.776545 -1.415857
v 179.853806 -74.354836 -597.592346 0.749020 0.749020 0.749020
vn 2.627994 -1.517273 2.617991
v 179.853806 -74.354836 0.000000 0.749020 0.749020 0.749020
vn 4.678045 2.776031 -1.419254
v 180.523682 68.145164 -597.796143 0.749020 0.749020 0.749020
vn 2.627995 1.517275 2.617985
v 180.523682 68.145164 0.000000 0.749020 0.749020 0.749020
vn 5.516307 -0.770189 -1.675059
v 181.193542 -69.354836 -598.000000 0.749020 0.749020 0.749020
vn 3.088067 -0.406549 2.879795
v 181.193542 -69.354836 0.000000 0.749020 0.749020 0.749020
vn 5.515018 0.771304 -1.676455
v 181.193542 65.645164 -598.000000 0.749020 0.749020 0.749020
vn 3.088081 0.406548 2.879796
v 181.193542 65.645164 0.000000 0.749020 0.749020 0.749020
# 52 vertices, 0 vertices normals


usemtl material_0
vt 0.000000 0.843750
vt 0.000560 0.843173
vt 0.120588 1.000000
f 36/1/36 34/2/34 51/3/51
vt 0.120888 0.998097
f 51/3/51 34/2/34 47/4/47
vt 0.002154 0.841531
f 47/4/47 34/2/34 32/5/32
vt 0.121707 0.992898
f 47/4/47 32/5/32 43/6/43
vt 0.004539 0.839073
f 43/6/43 32/5/32 30/7/30
vt 0.122826 0.985795
f 43/6/43 30/7/30 41/8/41
vt 0.007353 0.836174
f 41/8/41 30/7/30 29/9/29
vt 0.120588 0.000000
vt 1.000000 0.000000
vt 0.120888 0.001903
f 3/10/3 4/11/4 5/12/5
vt 1.000000 0.001903
f 5/12/5 4/11/4 6/13/6
vt 0.121707 0.007102
f 5/12/5 6/13/6 9/14/9
vt 1.000000 0.007102
f 9/14/9 6/13/6 10/15/10
vt 0.122826 0.014205
f 9/14/9 10/15/10 13/16/13
vt 1.000000 0.014205
f 13/16/13 10/15/10 14/17/14
vt 0.000000 0.156250
f 36/1/36 18/18/18 34/2/34
vt 0.000560 0.156827
f 34/2/34 18/18/18 19/19/19
vt 0.002154 0.158469
f 34/2/34 19/19/19 21/20/21
f 34/2/34 21/20/21 32/5/32
vt 0.004539 0.160927
f 32/5/32 21/20/21 23/21/23
f 32/5/32 23/21/23 30/7/30
f 30/7/30 23/21/23 29/9/29
vt 0.007353 0.163826
f 29/9/29 23/21/23 24/22/24
f 24/22/24 23/21/23 13/16/13
f 13/16/13 23/21/23 9/14/9
f 9/14/9 23/21/23 21/20/21
f 9/14/9 21/20/21 5/12/5
f 5/12/5 21/20/21 19/19/19
f 5/12/5 19/19/19 3/10/3
f 3/10/3 19/19/19 18/18/18
vt 1.000000 0.985795
vt 1.000000 0.992898
f 42/23/42 44/24/44 41/8/41
f 41/8/41 44/24/44 43/6/43
vt 1.000000 0.998097
f 43/6/43 44/24/44 48/25/48
f 43/6/43 48/25/48 47/4/47
vt 1.000000 1.000000
f 47/4/47 48/25/48 52/26/52
f 47/4/47 52/26/52 51/3/51
f 41/8/41 29/9/29 42/23/42
f 42/23/42 29/9/29 24/22/24
f 42/23/42 24/22/24 14/17/14
f 14/17/14 24/22/24 13/16/13
vt 1.000000 0.996194
vt 1.000000 0.971591
f 40/23/40 46/27/46 38/28/38
f 38/28/38 46/27/46 50/26/50
f 38/28/38 50/26/50 2/11/2
f 2/11/2 50/26/50 4/11/4
f 4/11/4 50/26/50 52/26/52
f 4/11/4 52/26/52 14/17/14
f 14/17/14 52/26/52 42/23/42
f 42/23/42 52/26/52 48/25/48
f 42/23/42 48/25/48 44/24/44
f 10/15/10 6/13/6 14/17/14
f 14/17/14 6/13/6 4/11/4
vt 1.000000 0.028409
f 38/28/38 2/11/2 16/29/16
vt 1.000000 0.003806
f 16/29/16 2/11/2 8/30/8
f 16/29/16 8/30/8 12/17/12
vt 0.125063 0.971591
vt 0.014706 0.828597
f 37/31/37 38/28/38 27/32/27
f 27/32/27 38/28/38 16/29/16
vt 0.014706 0.171403
f 27/32/27 16/29/16 26/33/26
vt 0.125063 0.028409
f 26/33/26 16/29/16 15/34/15
f 49/3/49 51/3/51 50/26/50
f 50/26/50 51/3/51 52/26/52
f 49/3/49 35/1/35 51/3/51
f 51/3/51 35/1/35 36/1/36
f 35/1/35 17/18/17 36/1/36
f 36/1/36 17/18/17 18/18/18
f 17/18/17 1/10/1 18/18/18
f 18/18/18 1/10/1 3/10/3
f 2/11/2 4/11/4 1/10/1
f 1/10/1 4/11/4 3/10/3
vt 0.001119 0.157403
f 17/18/17 35/1/35 20/35/20
vt 0.001119 0.842597
f 20/35/20 35/1/35 33/36/33
vt 0.004307 0.839312
f 20/35/20 33/36/33 31/37/31
vt 0.004307 0.160688
f 20/35/20 31/37/31 22/38/22
vt 0.009078 0.834396
f 22/38/22 31/37/31 28/39/28
vt 0.009078 0.165604
f 22/38/22 28/39/28 25/40/25
f 25/40/25 28/39/28 26/33/26
f 26/33/26 28/39/28 27/32/27
f 27/32/27 28/39/28 37/31/37
f 37/31/37 28/39/28 39/8/39
f 39/8/39 28/39/28 31/37/31
vt 0.121188 0.996194
f 39/8/39 31/37/31 45/41/45
f 45/41/45 31/37/31 33/36/33
f 45/41/45 33/36/33 49/3/49
f 49/3/49 33/36/33 35/1/35
f 17/18/17 20/35/20 1/10/1
vt 0.121188 0.003806
f 1/10/1 20/35/20 7/42/7
f 7/42/7 20/35/20 22/38/22
f 7/42/7 22/38/22 11/16/11
f 11/16/11 22/38/22 25/40/25
f 11/16/11 25/40/25 15/34/15
f 15/34/15 25/40/25 26/33/26
f 49/3/49 50/26/50 45/41/45
f 45/41/45 50/26/50 46/27/46
f 45/41/45 46/27/46 39/8/39
f 39/8/39 46/27/46 40/23/40
f 39/8/39 40/23/40 37/31/37
f 37/31/37 40/23/40 38/28/38
f 16/29/16 12/17/12 15/34/15
f 15/34/15 12/17/12 11/16/11
f 11/16/11 12/17/12 8/30/8
f 11/16/11 8/30/8 7/42/7
f 7/42/7 8/30/8 2/11/2
f 7/42/7 2/11/2 1/10/1
# 100 faces, 42 coords texture

# End of File