# File produced by Open Asset Import Library (http://www.assimp.sf.net)
# (assimp v5.0.0)

mtllib 0.mtl

# 23 vertex positions
v  -0.045662001 -0.023004999 -0.024524
v  0.045662001 0.023003999 -0.024524
v  0.046673 -0.022995999 -0.023910001
v  0.046583999 0.023003999 -0.021172
v  0.045426998 0.024971001 -0.022329001
v  -0.045169 -0.025005 -0.022585999
v  -0.001412 -0.023 0.024
v  -0.046583001 -0.023004999 -0.021171
v  -0.046673 0.022995001 -0.023910001
v  3.0000001e-06 -0.025 0.022585999
v  -1.9999966e-06 0.023 -0.024586
v  -0.045173999 0.024994999 -0.022585999
v  -0.046588 0.022995001 -0.021172
v  -1.9999945e-06 0.025 0.022585999
v  -0.001416 0.023 0.024
v  0.0014140001 5.734746e-12 0.024
v  0.023998 0.023002001 0.0014140001
v  0.046588 -0.022995999 -0.021171
v  0.001417 -0.023 0.024
v  -2.0000055e-06 0.025 -0.022585999
v  0.001412 0.023 0.024
v  0.045173999 -0.024995999 -0.022585999
v  0.022583 0.025002001 -2.9698659e-12

# 0 UV coordinates

# 42 vertex normals
vn 0.0066502448 -0.013200178 -0.99989074
vn 0.96404064 0.017648507 -0.26516822
vn 0.89176077 0.38025925 -0.24528697
vn -0.49991024 -0.70717835 0.4999885
vn -0.9641341 -0.017655104 -0.26482773
vn -0.8644253 -0.44316047 -0.2374398
vn -0.49991018 -0.70717841 0.49998847
vn -0.014482987 0.013026953 -0.99981028
vn 0.0013579737 -0.0026954636 -0.99999547
vn -0.012075874 0.55824113 -0.82959086
vn -0.99951845 -0.00010795409 0.031029582
vn -0.80783689 0.58887231 0.025078917
vn -0.50007671 0.70705366 0.49999842
vn -7.8124329e-10 8.7185204e-11 1
vn -0.50007683 0.70705342 0.49999857
vn -0.70710677 -6.1486237e-05 0.70710677
vn -0.70710677 -6.1473685e-05 0.70710677
vn 0.54358315 0.63951015 0.54363972
vn 0.99951881 8.7610053e-05 0.031018261
vn 0.70710677 7.687803e-05 0.70710677
vn 2.1076565e-09 -2.6777247e-10 1
vn 3.2979458e-10 -0.57729232 0.81653756
vn 0.50006902 -0.70705342 0.50000638
vn -0.00011071491 1 1.2332459e-10
vn 0.0042494847 0.74494529 -0.66711199
vn 0.00089814339 0.70710647 -0.70710647
vn -7.8287412e-05 0.70710677 -0.70710677
vn 0.49741638 0.70704859 0.50265217
vn 0.54358286 0.63951057 0.54363948
vn -5.8519195e-10 1.1130818e-10 1
vn -5.8251087e-10 0.57729232 0.81653756
vn 8.7272965e-06 8.7026064e-10 1
vn 0.70710677 7.6870732e-05 0.70710677
vn 0.70710677 7.6858203e-05 0.70710677
vn 0.80783445 -0.58887607 0.025069682
vn 0.49998623 -0.70717835 0.49991253
vn 9.9623612e-05 -1 1.1049817e-05
vn 0.0055859378 -0.55490273 -0.83189648
vn 6.9325979e-05 -0.69587904 -0.71815902
vn 0.063652381 0.99593467 0.06373778
vn 0.00064248365 0.99999952 -0.00073102658
vn -8.8575434e-05 1 1.233192e-10

# Mesh '' with 42 faces
# usemtl $Material_0
f  1//1 2//1 3//1
f  2//2 4//2 3//2
f  5//3 4//3 2//3
f  6//4 7//4 8//4
f  1//5 8//5 9//5
f  1//6 6//6 8//6
f  6//7 10//7 7//7
f  1//8 9//8 11//8
f  1//9 11//9 2//9
f  11//10 9//10 12//10
f  8//11 13//11 9//11
f  12//12 9//12 13//12
f  14//13 12//13 13//13
f  15//14 7//14 16//14
f  15//15 14//15 13//15
f  15//16 8//16 7//16
f  15//17 13//17 8//17
f  5//18 17//18 4//18
f  3//19 4//19 18//19
f  17//20 18//20 4//20
f  7//21 19//21 16//21
f  10//22 19//22 7//22
f  10//23 18//23 19//23
f  20//24 12//24 14//24
f  20//25 5//25 2//25
f  20//26 2//26 11//26
f  20//27 11//27 12//27
f  5//28 14//28 21//28
f  5//29 21//29 17//29
f  15//30 16//30 21//30
f  15//31 21//31 14//31
f  21//32 16//32 19//32
f  17//33 21//33 18//33
f  21//34 19//34 18//34
f  3//35 18//35 22//35
f  10//36 22//36 18//36
f  6//37 22//37 10//37
f  1//38 3//38 22//38
f  1//39 22//39 6//39
f  5//40 23//40 14//40
f  20//41 23//41 5//41
f  20//42 14//42 23//42

