# File produced by Open Asset Import Library (http://www.assimp.sf.net)
# (assimp v5.0.0)

mtllib 1.mtl

# 45 vertex positions
v  -0.050000001 -0.022994 -0.023006
v  -0.048 0.023007 -0.024994001
v  -0.048 -0.022993 -0.025006
v  0.037464 -0.022993 -0.025006
v  0.026926 0.023007 -0.024994001
v  -0.050000001 0.023006 -0.022994
v  0.048 -0.022993 -0.025006
v  0.050000001 -0.023006 0.022994
v  0.048363999 -0.023007 0.02496
v  0.048 -0.025006 0.022993
v  0.048 0.024738999 -0.023993
v  0.050000001 0.023007 -0.022994
v  0.048 0.024994001 0.023007
v  -0.048 -0.024994001 -0.023007
v  -0.049966 -0.023371 0.022994
v  0.048 0.022993 0.025006
v  0.050000001 0.022994 0.023006
v  0.050000001 -0.023 -5.9999957e-06
v  -0.016000001 0.024994001 0.023007
v  -0.032000002 0.024993001 0.023007
v  -0.050000001 0.022993 0.023006
v  -0.048363999 0.02496 0.023007
v  0.048 -6.9999983e-06 0.025
v  -0.048363999 -0.023007 0.02496
v  0.024537001 0.025003999 -0.013744
v  0.026930001 0.025006 -0.022993
v  -0.026930001 0.024866 -0.023729
v  -0.037462998 -0.02373 -0.024866
v  -0.048 -0.025007 0.022993
v  4.6040008e-12 0.024994001 0.023007
v  -0.037464 0.024866 -0.023729
v  -0.048 0.025006 -0.022993
v  -0.050000001 -0.023 -5.9999943e-06
v  -0.048363999 0.022993 0.024972999
v  -0.049858999 -7.0000015e-06 0.023736
v  0.049095001 -0.024667 -0.023007
v  0.037464 -0.024993001 -0.023007
v  -0.026927 -0.02373 -0.024866
v  0.019103 0.025002001 -0.0058909999
v  0.048 -0.024998 -0.0076740002
v  0.026930001 -0.02496 -0.023371
v  -0.024537999 0.025003999 -0.013744
v  0.048 -0.025002001 0.0076600001
v  -0.019103 -0.024999 -0.005905
v  -4.4430176e-12 -0.025001001 0.0020109999

# 0 UV coordinates

# 86 vertex normals
vn -0.70710683 0.00018444956 -0.70710671
vn -9.1458618e-11 0.00026085114 -0.99999994
vn 4.1098902e-11 0.00026085138 -0.99999994
vn -0.70710683 0.00018444982 -0.70710671
vn 6.2245564e-10 0.00026085152 -0.99999994
vn 0.6094327 -0.6096862 0.50682789
vn 0.4597877 0.018842084 -0.88782895
vn 0.045697 0.021195708 -0.99873048
vn 0.65580529 0.75491893 -0.0040958645
vn 4.1935733e-11 0.50038618 -0.86580235
vn -0.57735032 -0.57706141 -0.57763892
vn -0.70709825 -0.70709562 -0.0052724513
vn 0.57735032 0.57706141 0.57763892
vn 0.70709711 0.0048881634 0.70709956
vn 0.76866931 -0.00016685268 0.63964635
vn 0.70710683 0.70710671 0.00019982537
vn 1 -1.6116664e-11 6.8134734e-11
vn 1 -1.3333079e-10 3.024101e-10
vn -4.4138451e-05 0.70604616 0.70816582
vn -1 1.8437796e-10 -4.0026479e-11
vn -0.76882923 0.63945413 0.00018070689
vn 0.093004152 -0.0002597211 0.99566567
vn -7.0676243e-11 -0.0017391406 0.99999851
vn 6.2167084e-05 1 0.0002323762
vn 0.012413446 0.99990821 -0.0054250704
vn 0.00079038815 0.97017974 -0.24238533
vn -7.1075479e-11 -0.18662214 -0.98243177
vn -0.040001418 -0.70618737 -0.7068941
vn -0.63964605 -0.76866955 -0.00021722267
vn -0.53285295 -0.64067322 0.55281609
vn 7.3078263e-06 -0.70137924 0.71278828
vn -9.3584751e-11 -0.70120025 0.71296436
vn 1.1641677e-10 0.70675308 0.70746034
vn -4.773561e-10 0.70675308 0.70746034
vn -0.0016942273 0.56912237 -0.82225108
vn -4.8178084e-10 0.90114892 -0.43350968
vn -1.9459242e-11 1 0.00021629168
vn -6.2514599e-05 0.99999994 0.00030433992
vn -0.002016647 0.9999975 0.00098403741
vn -7.9329876e-12 0.98238522 -0.18686694
vn -4.7842241e-10 0.98238522 -0.18686694
vn -0.70709711 0.70709956 -0.0048881634
vn -0.57735032 0.57763892 -0.57706141
vn -0.039938278 0.70689589 -0.70618916
vn -0.99568933 -0.092751019 -2.419382e-05
vn -1 -2.2901764e-10 3.7314435e-10
vn -0.99999863 -0.00073372165 0.0014664548
vn -0.64781892 0.53853297 0.53880692
vn -0.00024387862 0.70203304 0.71214432
vn -0.001425624 0.70692623 0.70728588
vn -0.00034245662 -0.00026085167 0.99999988
vn -0.00034764642 -0.00028259557 0.99999988
vn -0.77360892 -0.016574206 0.63344657
vn -0.98607093 -0.00076617335 0.16632348
vn -0.63549894 -0.00021819242 0.7721017
vn -0.76873589 0.015580509 0.63937658
vn 0.02132201 -0.76072448 -0.64872462
vn 0.70705611 -0.70706195 0.011620288
vn 0.87955797 -0.47579175 -0.00012411077
vn 0.87107009 -0.016401747 -0.49088484
vn 0.99910033 -0.018955665 -0.037936889
vn 5.7551758e-10 -0.1866222 -0.98243177
vn 7.4305173e-11 -0.18662216 -0.98243177
vn -3.685926e-10 0.99999994 0.00027683741
vn 1.3199545e-05 0.99999994 0.00026363862
vn 2.8236915e-11 0.99999994 0.00027683767
vn 0.028012186 -0.99941593 -0.019574305
vn 1.1703534e-05 -0.99999994 -0.00033409233
vn -0.0024041967 -0.82056004 -0.57155526
vn 8.1956725e-10 -0.77222842 -0.63534498
vn 1.165538e-05 -0.99588507 -0.090624943
vn 0.020157034 -0.75790942 -0.65204829
vn 0.005222918 -0.67170846 -0.74079722
vn -2.420302e-05 0.99999994 0.00027768838
vn -3.2979999e-06 0.99999994 0.00027283173
vn -1.6871063e-10 1 0.00021629284
vn -1.6871279e-10 0.99999994 0.00025450488
vn 1.0419172e-05 -0.99999994 -0.00026081566
vn 1.0402253e-05 -0.99999994 -0.0002609216
vn 0.28614491 -0.95818633 -0.00024990996
vn 0.28614232 -0.9581871 -0.00025001174
vn -5.7579714e-06 -0.99999994 -0.00028259557
vn 6.8926088e-06 -0.99999994 -0.00030397109
vn 8.9540017e-06 -0.99999994 -0.00026545519
vn 7.0677661e-06 -0.99999994 -0.0002697703
vn 7.7507739e-06 -0.99999994 -0.00027141854

# Mesh '' with 86 faces
# usemtl $Material_0
f  1//1 2//1 3//1
f  2//2 4//2 3//2
f  2//3 5//3 4//3
f  1//4 6//4 2//4
f  7//5 4//5 5//5
f  8//6 9//6 10//6
f  7//7 11//7 12//7
f  7//8 5//8 11//8
f  13//9 12//9 11//9
f  2//10 11//10 5//10
f  14//11 1//11 3//11
f  14//12 15//12 1//12
f  16//13 17//13 13//13
f  16//14 9//14 17//14
f  8//15 17//15 9//15
f  13//16 17//16 12//16
f  12//17 17//17 18//17
f  8//18 18//18 17//18
f  16//19 19//19 20//19
f  21//20 6//20 1//20
f  21//21 22//21 6//21
f  23//22 9//22 16//22
f  24//23 9//23 23//23
f  25//24 13//24 26//24
f  26//25 13//25 11//25
f  27//26 26//26 11//26
f  28//27 3//27 4//27
f  14//28 3//28 28//28
f  29//29 15//29 14//29
f  29//30 24//30 15//30
f  29//31 10//31 9//31
f  29//32 9//32 24//32
f  16//33 13//33 30//33
f  16//34 30//34 19//34
f  2//35 31//35 11//35
f  31//36 27//36 11//36
f  25//37 26//37 32//37
f  20//38 19//38 32//38
f  20//39 32//39 22//39
f  32//40 26//40 27//40
f  32//41 27//41 31//41
f  22//42 32//42 6//42
f  32//43 2//43 6//43
f  32//44 31//44 2//44
f  15//45 33//45 1//45
f  21//46 1//46 33//46
f  21//47 33//47 15//47
f  34//48 22//48 21//48
f  34//49 16//49 20//49
f  34//50 20//50 22//50
f  34//51 23//51 16//51
f  34//52 24//52 23//52
f  24//53 35//53 15//53
f  21//54 15//54 35//54
f  34//55 35//55 24//55
f  34//56 21//56 35//56
f  36//57 37//57 7//57
f  8//58 10//58 36//58
f  8//59 36//59 18//59
f  36//60 7//60 12//60
f  36//61 12//61 18//61
f  7//62 38//62 4//62
f  38//63 28//63 4//63
f  39//64 19//64 30//64
f  25//65 39//65 13//65
f  39//66 30//66 13//66
f  40//67 37//67 36//67
f  40//68 14//68 37//68
f  14//69 28//69 41//69
f  38//70 41//70 28//70
f  14//71 41//71 37//71
f  7//72 37//72 41//72
f  7//73 41//73 38//73
f  19//74 42//74 32//74
f  39//75 42//75 19//75
f  25//76 32//76 42//76
f  25//77 42//77 39//77
f  29//78 43//78 10//78
f  29//79 40//79 43//79
f  36//80 10//80 43//80
f  40//81 36//81 43//81
f  44//82 29//82 14//82
f  44//83 14//83 40//83
f  29//84 45//84 40//84
f  44//85 45//85 29//85
f  44//86 40//86 45//86

