# File produced by Open Asset Import Library (http://www.assimp.sf.net)
# (assimp v5.0.0)

mtllib 2.mtl

# 38 vertex positions
v  0.012508 0.016071999 0.028279999
v  0.010508 0.018000999 0.028811
v  0.010508 0.015542 0.030208001
v  -0.010492 0.016688 0.030187
v  8.0000027e-06 0.015544 0.030208999
v  0.01191 -0.028653 0.017433999
v  0.012494 -0.016069001 -0.028279999
v  0.012507 0.022177 0.0061050002
v  0.012473 0.028378 -0.016421
v  0.010494 -0.015537 -0.030208001
v  0.010493 -0.017996 -0.02881
v  -0.012426 0.028425001 -0.016566999
v  -0.012506 -0.016062999 -0.028277
v  -0.0125 0.006112 -0.022172
v  -0.012492 0.016078001 0.028282
v  -0.012505 -0.022167001 -0.0061019999
v  -0.010506 -0.015892001 -0.030270001
v  -5.9999998e-06 -0.015535 -0.030207001
v  -0.010494 0.028818 -0.017996
v  -0.012436 -0.028409 0.016572
v  7.0000037e-06 0.030213 -0.015538
v  -0.010492 0.018006001 0.028813001
v  0.012502 -0.0061030001 0.022174999
v  0.010507 0.03021 -0.015539
v  -7.0000033e-06 -0.017994 -0.028809
v  -0.010507 -0.017991001 -0.028808
v  0.010506 0.028813001 -0.017998001
v  -0.012498 -0.0060970001 0.022178
v  -0.010504 -0.028803 0.018000999
v  0.010495 -0.029777 0.017394001
v  -3.9999986e-06 -0.028805999 0.017999999
v  -0.010493 0.030191001 -0.016679
v  0.010495 -0.030206 0.01554
v  0.010502 -0.0066340002 0.024103999
v  -0.010506 -0.024095999 -0.006633
v  -5.0000008e-06 -0.030203 0.015541
v  -0.010505 -0.030261001 0.016288999
v  6.0000011e-06 0.029487999 -0.017666001

# 0 UV coordinates

# 72 vertex normals
vn 0.57744384 0.40328974 0.7098704
vn 9.8900782e-05 0.020134345 0.99979728
vn 0.026078101 0.49379906 0.86918491
vn 0.70696896 -0.17559227 0.6851002
vn 0.99999994 -0.00023996439 -0.00011117177
vn 0.99999887 0.0008152927 -0.0012849205
vn 0.70710492 0.18260013 -0.68312502
vn 0.57696021 -0.40385428 -0.7099427
vn -0.99151564 0.034752384 -0.12525558
vn -0.99999392 0.0034476742 -0.00052244653
vn -0.99999994 0.00023996427 0.00011111824
vn -0.99999994 0.00023998668 0.00011115767
vn -0.70179594 0.18251352 -0.68860096
vn -6.0343642e-05 0.1755064 -0.98447829
vn 0.010920918 -0.49420828 -0.86927491
vn -4.1273139e-05 0.26542881 -0.96413046
vn -0.0032149151 0.2647298 -0.96431726
vn -0.60865313 0.21019863 -0.76508683
vn -0.6445061 -0.19538897 0.73921245
vn 0.00025489496 0.96413165 0.26542425
vn 0.0002378091 0.72165978 0.69224787
vn -0.7070685 0.68204606 0.18672782
vn -0.66040438 0.54190165 0.51981592
vn 0.99999994 -0.00023999631 -0.00011115363
vn 0.92386824 -0.10181695 0.36891845
vn 0.99961233 -0.02734484 0.0052427258
vn 0.71311533 0.67617893 0.18506351
vn 0.00030081757 0.96413445 0.26541415
vn 0.70723939 0.68162227 0.18762612
vn 0.70724571 0.68161631 0.18762392
vn -0.00018703782 -0.57136273 -0.82069761
vn -0.60960782 -0.45287076 -0.65060467
vn -0.00024140463 -0.57154572 -0.82057017
vn 0.63942969 0.20391828 -0.74131441
vn -2.8653405e-05 0.26543438 -0.96412891
vn 0.50714761 0.74928164 -0.42588532
vn -0.99999994 0.00023994585 0.0001112031
vn -0.99144459 -0.034391969 0.12591584
vn -0.99999225 -0.0033141235 0.0021307874
vn -0.60871059 -0.20514372 0.76641208
vn -0.030201152 -0.25862867 0.96550459
vn -7.05887e-05 -0.52999711 0.84799945
vn -0.030125486 0.96551138 0.25861219
vn -0.65529031 0.72965288 0.19545141
vn -0.55916822 0.57411349 -0.59810084
vn 0.00028363059 0.99976045 -0.021886541
vn -0.00020897384 -0.96412891 -0.26543435
vn 0.60886067 -0.77285671 0.17883277
vn 0.81295055 -0.56402314 -0.14487693
vn 0.7066747 -0.6821503 -0.18783468
vn 0.38361481 -0.24517578 0.89035302
vn 0.19053839 -0.27341968 0.94283444
vn 0.029668462 -0.27835381 0.9600203
vn 4.1113413e-05 -0.26538292 0.9641431
vn -1.4603701e-05 -0.26540741 0.96413636
vn 1.6034308e-05 -0.26543441 0.96412891
vn -0.70741433 -0.68199635 -0.18559623
vn -0.70741582 -0.68146002 -0.18755022
vn -0.70724601 -0.68161601 -0.1876238
vn -0.00030081716 -0.96414 -0.26539391
vn -0.00030064603 -0.96412891 -0.26543427
vn -0.00027019426 -0.96413261 -0.26542088
vn -0.53602427 -0.64255744 0.54753804
vn -0.013166838 -0.96559882 -0.25970271
vn -0.69412005 -0.69516301 -0.18693773
vn -0.016568091 -0.76121515 0.64828771
vn -0.00029258887 -0.99668217 -0.081391335
vn 0.010591567 -0.97420347 0.22542278
vn 1.9660336e-05 0.44160154 -0.89721125
vn -0.021485971 0.69208461 -0.72149652
vn 0.040242866 0.86876959 -0.49357864
vn 0.021761747 0.90909278 -0.41602492

# Mesh '' with 72 faces
# usemtl $Material_0
f  1//1 2//1 3//1
f  4//2 5//2 3//2
f  4//3 3//3 2//3
f  6//4 1//4 3//4
f  7//5 8//5 1//5
f  7//6 9//6 8//6
f  7//7 10//7 9//7
f  7//8 11//8 10//8
f  12//9 13//9 14//9
f  12//10 14//10 15//10
f  13//11 16//11 14//11
f  15//12 14//12 16//12
f  12//13 17//13 13//13
f  10//14 17//14 18//14
f  11//15 17//15 10//15
f  19//16 10//16 18//16
f  19//17 18//17 17//17
f  19//18 17//18 12//18
f  4//19 15//19 20//19
f  21//20 22//20 2//20
f  22//21 4//21 2//21
f  12//22 15//22 22//22
f  22//23 15//23 4//23
f  7//24 1//24 23//24
f  6//25 23//25 1//25
f  6//26 7//26 23//26
f  24//27 8//27 9//27
f  24//28 21//28 2//28
f  24//29 2//29 1//29
f  24//30 1//30 8//30
f  11//31 25//31 17//31
f  17//32 26//32 13//32
f  25//33 26//33 17//33
f  27//34 9//34 10//34
f  19//35 27//35 10//35
f  24//36 9//36 27//36
f  15//37 16//37 28//37
f  15//38 28//38 20//38
f  20//39 28//39 16//39
f  4//40 20//40 29//40
f  4//41 29//41 5//41
f  30//42 31//42 29//42
f  32//43 22//43 21//43
f  32//44 12//44 22//44
f  32//45 19//45 12//45
f  24//46 32//46 21//46
f  11//47 33//47 25//47
f  6//48 30//48 33//48
f  6//49 33//49 7//49
f  7//50 33//50 11//50
f  6//51 3//51 34//51
f  6//52 34//52 30//52
f  34//53 31//53 30//53
f  34//54 3//54 5//54
f  34//55 5//55 29//55
f  34//56 29//56 31//56
f  35//57 20//57 16//57
f  35//58 16//58 13//58
f  35//59 13//59 26//59
f  33//60 36//60 35//60
f  35//61 26//61 25//61
f  33//62 35//62 25//62
f  20//63 37//63 29//63
f  36//64 37//64 35//64
f  35//65 37//65 20//65
f  30//66 29//66 37//66
f  33//67 37//67 36//67
f  33//68 30//68 37//68
f  19//69 38//69 27//69
f  32//70 38//70 19//70
f  24//71 27//71 38//71
f  24//72 38//72 32//72

