# File produced by Open Asset Import Library (http://www.assimp.sf.net)
# (assimp v5.0.0)

mtllib 3.mtl

# 30 vertex positions
v  -0.30199999 -0.075000003 0.014499
v  -0.30000001 -0.072999999 0.014500001
v  -0.30199999 -0.075000003 0.035498999
v  -0.398 -0.075000003 0.035498999
v  -0.30199999 -0.072999999 0.037500001
v  -0.30199999 -0.027000001 0.012501
v  -0.30199999 -0.025 0.014501001
v  -0.30000001 -0.027000001 0.014501001
v  -0.399932 -0.027000001 0.013983
v  -0.398 -0.027000001 0.0125
v  -0.398 -0.072999999 0.012499
v  -0.30199999 -0.072999999 0.012499
v  -0.398 -0.075000003 0.014499
v  -0.30058599 -0.025586002 0.035501
v  -0.34999999 -0.025 0.035501
v  -0.30163601 -0.027000001 0.037466999
v  -0.398 -0.025 0.014501001
v  -0.34999999 -0.072999999 0.012499
v  -0.39996698 -0.073363997 0.014499
v  -0.40000001 -0.027000001 0.025
v  -0.30000001 -0.072999999 0.035500001
v  -0.40000001 -0.072999999 0.035498999
v  -0.34999999 -0.027000001 0.037501
v  -0.398 -0.027000001 0.037501
v  -0.398 -0.072999999 0.037498999
v  -0.399674 -0.025906 0.035501
v  -0.34999999 -0.025 0.014501001
v  -0.34999999 -0.075000003 0.014499
v  -0.30199999 -0.050000001 0.037500001
v  -0.398 -0.050000001 0.037500001

# 0 UV coordinates

# 48 vertex normals
vn 0.70711207 -0.70710152 7.3715583e-17
vn 0 -0.7072832 0.70693034
vn 0.57735527 0.57734776 -0.57734776
vn -0.60889781 1.7248683e-05 -0.79324865
vn 7.3674655e-06 0.70710677 -0.70710677
vn 1.0419169e-05 4.3488715e-05 -1
vn 0.57754827 -0.57725072 -0.57725179
vn 0.70728832 1.5357322e-05 -0.70692521
vn 0.70711142 3.0750965e-05 -0.70710218
vn 0 -1 3.3881318e-21
vn 0.011853823 0.99956262 0.027094457
vn 0.0095981788 0.80935758 0.58723778
vn 0.7068367 0.70682752 -0.027869813
vn -0.47694418 0.62165523 -0.62134451
vn 5.5511151e-17 2.1744358e-05 -1
vn -0.71228635 -0.0072736177 -0.70185131
vn -0.50694883 -0.60950863 -0.60950977
vn -0.99998069 0.00068592012 -0.0061729676
vn -0.63945824 -0.76882583 -4.0871034e-17
vn 0.70710224 -0.0050876602 0.707093
vn 0.87875909 0.010850234 0.47714224
vn 0.57725924 -0.57753986 0.57725167
vn 1 -1.110223e-16 -4.9480277e-17
vn 0.9995575 0.012352617 0.0270594
vn -0.99999869 -0.00035747475 -0.0015662292
vn -0.7070629 -0.7070629 0.011143888
vn 0.00049710833 0.70710671 0.70710671
vn 1.110223e-16 0.70710677 0.70710677
vn -2.220446e-16 -2.1703867e-05 1
vn -7.3811921e-06 -0.70710611 0.70710742
vn -0.5773499 -0.5773499 0.57735097
vn -0.94169414 0.33641985 -0.00581316
vn -0.71547592 0.69811881 -0.026914695
vn -0.99951661 0.0069178534 0.030309675
vn -0.76540571 0.0052711754 0.64352643
vn -0.015896171 0.87155253 0.49004439
vn -0.018220061 0.99896628 0.041645862
vn -5.5511151e-17 0.70728356 -0.70692998
vn 1.4034351e-21 1 -1.1547777e-20
vn 0 0 0
vn 0 -0.70710611 -0.70710742
vn 0.090301387 -1.110223e-16 0.99591446
vn 0.00070301659 0.0014237575 0.99999875
vn 2.0799534e-05 1.110223e-16 1
vn -1.0399766e-05 -4.340773e-05 1
vn -1.0438572e-05 -4.3569704e-05 1
vn -0.70710677 -3.06939e-05 0.70710677
vn -0.70710611 -3.080846e-05 0.70710742

# Mesh '' with 56 faces
# usemtl $Material_0
f  1//1 2//1 3//1
f  4//2 3//2 5//2
f  6//3 7//3 8//3
f  9//4 10//4 11//4
f  10//5 7//5 6//5
f  12//6 10//6 6//6
f  12//7 2//7 1//7
f  12//8 8//8 2//8
f  12//9 6//9 8//9
f  13//10 3//10 4//10
f  13//10 1//10 3//10
f  14//11 7//11 15//11
f  14//12 15//12 16//12
f  14//13 8//13 7//13
f  9//14 17//14 10//14
f  11//15 10//15 18//15
f  12//15 18//15 10//15
f  9//16 11//16 19//16
f  13//17 19//17 11//17
f  9//18 19//18 20//18
f  13//19 4//19 19//19
f  21//20 16//20 5//20
f  14//21 16//21 21//21
f  21//1 3//1 2//1
f  21//22 5//22 3//22
f  8//23 21//23 2//23
f  14//24 21//24 8//24
f  22//25 20//25 19//25
f  22//26 19//26 4//26
f  15//27 23//27 16//27
f  15//28 24//28 23//28
f  24//29 5//29 23//29
f  25//30 4//30 5//30
f  25//31 22//31 4//31
f  26//32 9//32 20//32
f  26//33 17//33 9//33
f  26//34 20//34 22//34
f  26//35 22//35 24//35
f  15//36 26//36 24//36
f  15//37 17//37 26//37
f  27//38 7//38 10//38
f  27//38 10//38 17//38
f  15//39 7//39 27//39
f  15//39 27//39 17//39
f  28//40 1//40 13//40
f  28//41 12//41 1//41
f  28//41 18//41 12//41
f  28//41 13//41 11//41
f  28//41 11//41 18//41
f  29//42 5//42 16//42
f  29//43 16//43 23//43
f  29//44 23//44 5//44
f  30//45 5//45 24//45
f  30//46 25//46 5//46
f  30//47 24//47 22//47
f  30//48 22//48 25//48

