# File produced by Open Asset Import Library (http://www.assimp.sf.net)
# (assimp v5.0.0)

mtllib 4.mtl

# 36 vertex positions
v  0.023068 -0.022932 -0.025
v  0.023668 0.02307 -0.02486
v  0.025068 -0.022926001 -0.023
v  -0.023585999 0.02293 -0.024932001
v  -0.024742 0.022926999 0.024094
v  -0.023073999 0.024932001 0.023
v  -0.025068 0.022926001 -0.023
v  -0.023073999 0.024898 -0.023364
v  -0.022926001 -0.025068 -0.023
v  -0.023296 -0.023069 -0.024967
v  0.024932001 0.023073999 0.023
v  0.022932 0.023068 0.025
v  0.023068 -0.022932 0.025
v  0.023290001 0.025036 0.023
v  0.024932001 0.023073999 -0.023
v  0.025068 -0.022926001 0.023
v  0.023073999 -0.024932001 0.023
v  -0.022929 -0.024162 0.024674
v  6.8000001e-05 -0.023 0.025
v  -0.02307 0.023668 0.02486
v  -0.025 -7.3999989e-05 0.023
v  -0.025 -7.3999996e-05 -0.023
v  0.023290001 0.025036 -0.023
v  -7.3999996e-05 0.025 -0.023
v  -7.3999996e-05 0.025 0.023
v  -0.023073999 0.024932001 5.2509386e-12
v  -6.9999995e-05 0.023736 -0.02486
v  -0.023 -6.8000001e-05 -0.025
v  -0.024791 -0.023073001 -0.023736
v  0.025 7.4000003e-05 0.023
v  -0.023290001 -0.025036 0.023
v  0.023437999 -0.024897 -0.023
v  -6.7999994e-05 0.023 0.025
v  0.025 7.3999989e-05 -0.023
v  7.3999996e-05 -0.025 0.023
v  -0.024932001 -0.023073999 0.023

# 0 UV coordinates

# 67 vertex normals
vn 0.70709974 -0.0070707649 -0.70707852
vn 0.0015147256 0.0030235748 -0.99999428
vn -0.76732147 0.64124078 0.0052980571
vn -0.65338868 0.56838173 -0.50002539
vn 0.0015645986 -0.70123053 -0.71293288
vn 0.70710212 0.0020905503 0.70710838
vn 0.60796952 0.50881022 0.60949588
vn 0.76687407 0.6417976 5.8650862e-12
vn 0.57907873 -0.57561487 0.57735199
vn 0.013895037 -0.70701766 0.70705932
vn 0.00084430957 -0.28557709 0.95835537
vn -0.41475537 -0.004761152 0.90992051
vn -0.52950984 0.70109546 0.47758192
vn -0.013975721 -0.0039295629 0.99989462
vn 0.0071517574 0.71212757 0.70201361
vn -0.99991679 0.010886786 0.0069215219
vn -0.99999565 -0.0029564903 6.7200356e-11
vn 0.67967987 0.56882471 -0.46311307
vn -0.0015156694 0.98368752 -0.17987923
vn -0.0015408018 0.99999881 -1.4613043e-10
vn 0.76687407 0.6417976 -2.1332547e-11
vn -0.0015408023 0.99999881 9.1859353e-11
vn -0.002956491 0.99999565 9.1893756e-11
vn -0.0012640069 0.82035536 0.57185268
vn -0.0024452857 0.82708693 0.5620687
vn -0.0029564917 0.99999565 -2.7788288e-10
vn -0.0044117174 0.99998921 -0.0014552452
vn -0.70922476 0.70498246 -2.0702931e-10
vn -0.70326835 0.71092373 -0.0010345791
vn 0.001376499 0.049062062 -0.99879479
vn -0.019071145 0.62606007 -0.77954161
vn 0.019333109 0.68908316 -0.7244243
vn 0.0022455424 0.80618244 -0.5916627
vn 0.0014862567 0.0029946147 -0.9999944
vn -0.1137692 3.8672737e-05 -0.99350721
vn -0.00070755597 -0.0014256338 -0.99999875
vn -0.63564372 -0.0034200219 -0.77197498
vn -0.7934429 0.0049602017 -0.60862452
vn -0.98213452 -0.0029036838 -0.18815793
vn -0.47657907 -0.65984231 -0.58093077
vn 0.70710212 0.00209055 0.70710838
vn 0.99999565 0.0029564905 4.1698534e-11
vn 0.99999565 0.0029564914 4.0376258e-11
vn -0.72952116 -0.68393773 -0.0052969456
vn 0.0026299709 -0.71307522 -0.70108259
vn 0.0036881834 -0.99999291 -0.00073170039
vn 0.61096573 -0.50526386 -0.60945004
vn 0.77061909 -0.63729602 4.7744142e-11
vn 0.70921564 -0.70497334 0.0050756461
vn -0.00055246847 0.18686545 0.98238534
vn -0.0060868431 -1.7995755e-05 0.99998146
vn 7.8521556e-12 1.8304769e-10 1
vn -1.0420767e-10 1.2660301e-10 1
vn 0.99999565 0.0029564907 -5.7801541e-11
vn 0.99999565 0.0029564912 -5.780143e-11
vn 0.82708693 0.0024452854 -0.5620687
vn 0.82708693 0.0024452859 -0.5620687
vn 0.0026001036 -0.87945205 0.4759804
vn 0.0013660345 -0.88657272 0.46258724
vn 0.002956491 -0.99999565 9.420964e-11
vn 0.0015408016 -0.99999857 0.0007078491
vn -0.76687199 -0.64179587 -0.0023273276
vn -0.99999565 -0.0029564912 6.7200467e-11
vn -0.99995506 -0.0089903921 -0.0030170104
vn -0.68578631 -0.57393515 0.44754401
vn -0.64613628 -0.015478511 0.76306504
vn -0.95835054 -0.0028333673 0.28558058

# Mesh '' with 68 faces
# usemtl $Material_0
f  1//1 2//1 3//1
f  1//2 4//2 2//2
f  5//3 6//3 7//3
f  7//4 8//4 4//4
f  1//5 9//5 10//5
f  11//6 12//6 13//6
f  11//7 14//7 12//7
f  11//8 15//8 14//8
f  16//9 13//9 17//9
f  18//10 17//10 13//10
f  18//11 13//11 19//11
f  5//12 18//12 20//12
f  5//13 20//13 6//13
f  20//14 18//14 19//14
f  20//15 12//15 14//15
f  5//16 7//16 21//16
f  22//17 21//17 7//17
f  2//18 23//18 15//18
f  23//19 8//19 24//19
f  23//20 24//20 14//20
f  23//21 14//21 15//21
f  24//22 25//22 14//22
f  24//23 6//23 25//23
f  20//24 14//24 25//24
f  20//25 25//25 6//25
f  24//26 26//26 6//26
f  8//27 26//27 24//27
f  7//28 6//28 26//28
f  7//29 26//29 8//29
f  4//30 27//30 2//30
f  4//31 8//31 27//31
f  2//32 27//32 23//32
f  23//33 27//33 8//33
f  1//34 28//34 4//34
f  4//35 28//35 10//35
f  1//36 10//36 28//36
f  29//37 4//37 10//37
f  29//38 7//38 4//38
f  22//39 7//39 29//39
f  29//40 10//40 9//40
f  16//41 30//41 13//41
f  11//6 13//6 30//6
f  16//42 3//42 30//42
f  11//43 30//43 15//43
f  29//44 9//44 31//44
f  1//45 32//45 9//45
f  32//46 17//46 9//46
f  1//47 3//47 32//47
f  16//48 32//48 3//48
f  16//49 17//49 32//49
f  20//50 33//50 12//50
f  20//51 19//51 33//51
f  33//52 13//52 12//52
f  33//53 19//53 13//53
f  3//54 34//54 30//54
f  15//55 30//55 34//55
f  2//56 34//56 3//56
f  2//57 15//57 34//57
f  18//58 35//58 17//58
f  18//59 31//59 35//59
f  9//60 17//60 35//60
f  31//61 9//61 35//61
f  29//62 31//62 36//62
f  22//63 36//63 21//63
f  22//64 29//64 36//64
f  18//65 36//65 31//65
f  5//66 36//66 18//66
f  5//67 21//67 36//67

