# File produced by Open Asset Import Library (http://www.assimp.sf.net)
# (assimp v5.0.0)

mtllib 6.mtl

# 34 vertex positions
v  0.023014 0.022985 0.050000999
v  0.023015 0.024985 0.048000999
v  -0.022986 0.023378 0.049966998
v  -0.022985 0.025014 0.048
v  -0.025015 -0.022985 0.047998998
v  -0.025014 -0.022984 -0.048000999
v  -0.023015 -0.024985 -0.048000999
v  -0.024986001 0.023015 0.048
v  -0.023001 1.4e-05 0.050000001
v  0.025015 0.022985 -0.047998998
v  0.023379 0.022986 -0.049966
v  0.02338 0.024953 -0.047998998
v  0.025014 0.022984 0.048000999
v  1.4000005e-05 0.022999 0.050000001
v  -0.025001001 1.5e-05 0.048
v  -0.023015 -0.022986 0.049998999
v  -0.025 1.6e-05 -0.048
v  1.6000004e-05 0.025001001 -0.048
v  -0.022984 0.025015 -0.048
v  -0.024985 0.023016 -0.048
v  -0.022985 0.023015 -0.050000001
v  -0.023014 -0.022985 -0.050000999
v  0.022986 -0.023378 -0.049966998
v  0.023001 -1.3999997e-05 -0.050000001
v  0.024986001 -0.023015 -0.048
v  0.024985 -0.023016 0.048
v  0.025001001 -1.5000006e-05 -0.048
v  -0.023016 -0.024986001 0.047998998
v  0.022985 -0.023015 0.050000001
v  1.5000003e-05 0.023001 -0.050000001
v  -1.3999995e-05 -0.022999 -0.050000001
v  0.022985 -0.025014 -0.048
v  -1.6e-05 -0.025001001 0.048
v  0.022984 -0.025015 0.048

# 0 UV coordinates

# 64 vertex normals
vn 0.0055183913 0.70709461 0.70709741
vn 0.00047080993 0.76882905 0.63945419
vn -0.70746034 -0.70675308 -1.4734888e-05
vn -0.60922325 0.60983294 0.50690317
vn -0.70133364 0.0014571578 0.71283168
vn 0.64802992 0.53837854 -0.53870755
vn 0.76918149 0.6390304 1.46724e-05
vn 0.7074582 0.70675093 0.0024542313
vn 0.57763892 0.57706141 0.57735032
vn 9.9243471e-06 0.087346911 0.99617797
vn -4.3381413e-05 4.3437962e-05 1
vn -0.0014115907 0.0014134331 0.99999803
vn -0.70710659 0.00046115275 0.70710683
vn -0.70710665 0.00039959303 0.70710683
vn -0.70710665 0.00039959329 0.70710683
vn -0.99999982 0.00060868007 -1.0412703e-05
vn -0.99999982 0.00060868042 -1.0412782e-05
vn 0.0020544676 0.99999785 -0.0003255239
vn 0.00060868019 0.99999982 1.0425495e-05
vn 0.00063042389 0.99999982 1.5635156e-05
vn 0.001483048 0.70710593 -0.70710605
vn -0.57706141 0.57763892 -0.57735032
vn -0.70710659 0.00046115264 -0.70710683
vn -0.70675308 0.70746034 7.3767632e-09
vn -0.70675308 0.70746034 7.4560811e-09
vn -0.99999976 0.00065216864 -1.0412328e-05
vn -0.99999976 0.00065216888 -1.0412281e-05
vn -0.57763892 -0.57706141 -0.57735032
vn -0.70710659 0.00046109594 -0.70710683
vn -0.70710641 0.00046112412 -0.70710701
vn 0.18005545 -0.0015050395 -0.98365533
vn 0.70173478 -0.0059328391 -0.71241361
vn -0.0055183917 -0.70709461 -0.70709741
vn 0.99999976 -0.00065216864 1.0412446e-05
vn 0.99999982 -0.00063042471 1.5622165e-05
vn 0.99999982 -0.00060868042 1.0412876e-05
vn 0.7688297 -0.00044011066 -0.63945347
vn 0.76847714 -0.00050117698 -0.63987702
vn -0.70746034 -0.70675308 -1.4734886e-05
vn -0.57763892 -0.57706141 0.57735032
vn -1.0865609e-05 -2.169698e-05 1
vn -2.1812406e-05 -4.3556349e-05 1
vn 0.70710659 -0.00046112417 0.70710683
vn 0.70710659 -0.00046112432 0.70710683
vn 0.0014829922 0.70710564 -0.70710635
vn 0.001456192 0.0014543567 -0.99999785
vn 0.00043040133 0.70710659 -0.70710683
vn 0.00043040194 0.70710659 -0.70710683
vn 1.4478457e-05 1.4459866e-05 -1
vn 1.278049e-08 2.1704029e-05 -1
vn 4.3381573e-05 -4.3438216e-05 -1
vn 0.0014115907 -0.0014134331 -0.99999803
vn -9.9242307e-06 -0.087346904 -0.99617797
vn 0.60922325 -0.60983294 -0.50690317
vn -0.00047080996 -0.76882905 -0.63945419
vn -0.00049196108 -0.70710659 0.70710683
vn -0.00046107377 -0.70692956 0.70728379
vn -0.00065216841 -0.99999976 -1.0425975e-05
vn -0.00063042401 -0.99999982 -1.5635298e-05
vn 0.70675308 -0.70746034 -7.3683695e-09
vn 0.70675308 -0.70746034 -7.3807498e-09
vn -0.00060868001 -0.99999982 -1.0425576e-05
vn 0.57706141 -0.57763892 0.57735032
vn -0.00043040194 -0.70710659 0.70710683

# Mesh '' with 64 faces
# usemtl $Material_0
f  1//1 2//1 3//1
f  4//2 3//2 2//2
f  5//3 6//3 7//3
f  8//4 3//4 4//4
f  9//5 3//5 8//5
f  10//6 11//6 12//6
f  13//7 10//7 12//7
f  13//8 12//8 2//8
f  13//9 2//9 1//9
f  1//10 3//10 14//10
f  1//11 14//11 9//11
f  9//12 14//12 3//12
f  9//13 8//13 15//13
f  5//14 16//14 15//14
f  9//15 15//15 16//15
f  5//16 15//16 6//16
f  17//17 6//17 15//17
f  2//18 12//18 18//18
f  4//19 18//19 19//19
f  4//20 2//20 18//20
f  12//21 11//21 18//21
f  20//22 19//22 21//22
f  17//23 20//23 21//23
f  4//24 19//24 20//24
f  8//25 4//25 20//25
f  17//26 15//26 20//26
f  15//27 8//27 20//27
f  7//28 6//28 22//28
f  17//29 22//29 6//29
f  17//30 21//30 22//30
f  23//31 24//31 11//31
f  25//32 23//32 11//32
f  7//33 22//33 23//33
f  26//34 25//34 27//34
f  13//35 26//35 27//35
f  13//36 27//36 10//36
f  10//37 27//37 11//37
f  25//38 11//38 27//38
f  5//39 7//39 28//39
f  5//40 28//40 16//40
f  29//41 1//41 9//41
f  29//42 9//42 16//42
f  29//43 13//43 1//43
f  29//44 26//44 13//44
f  30//45 18//45 11//45
f  30//46 11//46 24//46
f  30//47 21//47 19//47
f  30//48 19//48 18//48
f  30//49 24//49 22//49
f  30//50 22//50 21//50
f  24//51 31//51 22//51
f  23//52 31//52 24//52
f  23//53 22//53 31//53
f  32//54 23//54 25//54
f  32//55 7//55 23//55
f  33//56 16//56 28//56
f  29//57 16//57 33//57
f  33//58 28//58 7//58
f  33//59 7//59 32//59
f  26//60 34//60 25//60
f  32//61 25//61 34//61
f  33//62 32//62 34//62
f  29//63 34//63 26//63
f  29//64 33//64 34//64

