# File produced by Open Asset Import Library (http://www.assimp.sf.net)
# (assimp v5.0.0)

mtllib 7.mtl

# 99 vertex positions
v  0.024906 -6.5588368e-12 -0.010326
v  0.024388 0.023 -0.011851
v  0.024906 0.023 -0.010326
v  0.0086420001 0.023 0.010959
v  0.012894 0.023 0.0089180004
v  0.012036 0.024413999 0.0087529998
v  0.01914 0.023736 0.0033460001
v  0.018275 0.02486 0.00263
v  -0.024266999 -0.024352999 -0.011078
v  -0.022913 -0.023364 -0.012467
v  -0.022915 -0.024967 -0.010864
v  0.022913 -0.02486 -0.011236
v  0.022913 -0.023 -0.0125
v  -0.022914 0.024674 -0.011595
v  0.022913 0.024413999 -0.011914
v  -0.022913 0.023364 -0.012467
v  0.022913 0.025 -0.0105
v  -0.024003999 0.024674 -0.010405
v  -0.024387 0.023 -0.011852
v  6.4835082e-12 0.023 0.0125
v  -0.0042690001 0.023 0.012133
v  6.0312866e-14 -0.023 0.0125
v  0.0042679999 0.023 0.012133
v  0.004398 -0.023736 0.011963
v  -0.00388 -0.024413999 0.011612
v  0.0086420001 -0.023 0.010959
v  0.022913 0.023 -0.0125
v  0.011339 0.025 0.007522
v  0.0078170002 0.025 0.0091340002
v  0.023548 0.023736 -0.004497
v  0.01677 0.023 0.0060410001
v  -0.012895 0.023 0.0089180004
v  -0.012895 -0.023 0.0089180004
v  -0.0086430004 0.023 0.010958
v  -0.022913 3.4054704e-12 -0.0125
v  -0.0042690001 -0.023 0.012133
v  -0.00388 0.024413999 0.011612
v  0.000208 0.025 0.0105
v  0.0040699998 0.025 0.010133
v  -0.0076359999 0.025 0.0091920001
v  0.012894 -0.023 0.0089180004
v  0.01677 -0.023 0.0060410001
v  -0.024134001 0.023 -0.0059779999
v  -0.022515999 0.023 -0.001636
v  -0.022979001 0.023736 -0.003026
v  -0.019102 0.023736 0.003424
v  -0.018238001 0.02486 0.0027050001
v  0.014765 0.025 0.005132
v  0.024266999 0.024354 -0.011077
v  0.024134999 0.023 -0.0059770001
v  -0.022515999 -0.023 -0.001636
v  0.01914 -0.023736 0.0033460001
v  0.023548 -0.023736 -0.004497
v  0.022515999 -0.023 -0.001635
v  0.020078 -0.025 -0.001285
v  -0.024387 -0.023 -0.011852
v  -0.024871999 0.023364 -0.010329
v  -0.024905 6.0666749e-12 -0.010327
v  -0.0086430004 -0.023 0.010958
v  -0.012077 -0.024413999 0.0087050004
v  -0.0036549999 0.025 0.010215
v  0.0043199998 0.024413999 0.011525
v  -0.0036549999 -0.025 0.010215
v  0.000208 -0.025 0.0105
v  0.012036 -0.024413999 0.0087529998
v  0.014765 -0.025 0.005132
v  0.011339 -0.025 0.007522
v  0.0078170002 -0.025 0.0091340002
v  -0.021260001 0.025 -0.003735
v  -0.011377 0.025 0.0074769999
v  -0.014761 0.025 0.0051350002
v  -0.012077 0.024413999 0.0087050004
v  -0.01677 0.023 0.0060410001
v  0.020078 0.025 -0.001285
v  0.024321999 -0.024413999 -0.010377
v  0.024134999 -0.023 -0.0059770001
v  0.024906 -0.023 -0.010326
v  0.022515999 0.023 -0.001635
v  0.021787001 -0.025 -0.0050960002
v  0.024388 -0.023 -0.011851
v  -0.024134001 -0.023 -0.0059779999
v  -0.0076359999 -0.025 0.0091920001
v  0.017708 -0.025 0.0021599999
v  0.0040699998 -0.025 0.010133
v  -0.019693 0.025 -0.000612
v  -0.020035001 -0.023 0.0024540001
v  0.021787001 0.025 -0.0050960002
v  -0.024905 -0.023 -0.010327
v  -0.022344001 -0.025 -0.007057
v  -0.022979001 -0.023736 -0.003026
v  -0.021260001 -0.025 -0.003735
v  -0.022344001 0.025 -0.007057
v  -0.020035001 0.023 0.0024540001
v  -0.01677 -0.023 0.0060410001
v  -0.019693 -0.025 -0.000612
v  -0.019102 -0.023736 0.003424
v  -0.011377 -0.025 0.0074769999
v  -0.014761 -0.025 0.0051350002
v  -0.018238001 -0.02486 0.0027050001

# 0 UV coordinates

# 194 vertex normals
vn 0.94686735 3.8795966e-10 -0.32162434
vn 0.40614113 0.34517536 0.84611076
vn 0.47224411 0.70254785 0.53236455
vn -0.20469549 -0.69200653 -0.69226199
vn 0.0038689075 -0.56206256 -0.82708567
vn -0.0040888372 -0.70709831 -0.70710343
vn -0.0026508204 0.55411011 -0.83243912
vn 0.0025762317 0.92380643 -0.38285124
vn -0.5892024 0.60131156 -0.53968966
vn -0.43577564 0.49850219 -0.7493965
vn -0.085652627 2.7221336e-11 0.99632508
vn 0.08567255 3.2987502e-12 0.99632335
vn 0.12066024 -0.0032752489 0.99268848
vn 0.0097258352 -0.55080664 0.83457619
vn 0.43273798 2.2655294e-10 0.90151972
vn 0.25922906 2.0296786e-10 0.9658159
vn 0.23068969 -0.0028976605 0.97302306
vn 0.37655702 0.35467178 -0.85581118
vn 0.0023757634 0.38285112 -0.92380702
vn 0.1597767 0.92336744 0.34909028
vn 0.62168914 0.70101124 0.34940785
vn 0.54242659 0.41441351 0.73077691
vn 0.52894002 0.57666504 0.62263942
vn -0.43256557 -1.4900969e-11 0.90160245
vn -0.00070890557 -0.0014124484 -0.99999875
vn 1.2331869e-10 3.0041775e-11 -1
vn -0.00070890546 0.0014124481 -0.99999875
vn -0.38533351 0.0013033756 -0.92277646
vn -0.25943506 -8.4052321e-11 0.96576053
vn -0.079780594 -0.36388555 0.92802066
vn -0.085652627 -9.4282138e-11 0.99632508
vn -0.23857543 0.39286542 0.88810951
vn -0.079780594 0.36388555 0.92802066
vn -9.7045394e-10 1 8.3029246e-09
vn 0.43273798 7.6794904e-11 0.90151972
vn 0.5960151 6.8586359e-11 0.80297327
vn 0.5960151 -3.8251347e-11 0.80297327
vn -0.93476802 0.069812663 0.34833169
vn -0.78628957 0.39796004 0.47262719
vn -0.60958183 0.70296025 0.36641076
vn 0.29599357 0.88234127 0.36587116
vn 0.21979047 0.92326975 0.31506363
vn 5.5702212e-09 1 7.7987838e-09
vn 0.86326122 0.48498848 0.13987951
vn 0.91448426 0.25928897 -0.31062472
vn 0.479747 0.46735865 -0.74257571
vn 0.26748842 0.89014685 -0.36890176
vn 0.98464644 3.1399505e-10 0.17456046
vn 0.90315235 0.39834619 0.16011298
vn -0.93705434 -1.9755309e-12 0.34918365
vn 0.71991289 -0.56392747 0.40461251
vn 0.57254994 -0.75408071 0.32179013
vn 0.7509346 -2.4126812e-12 0.66037661
vn 0.7509346 2.4564378e-11 0.66037661
vn -0.38533348 -0.0013033759 -0.92277646
vn -0.40244725 -4.2337911e-11 -0.91544318
vn -0.43617415 -0.47566548 -0.76386809
vn -0.78451443 0.49841076 -0.36894968
vn -0.81459343 0.55036938 0.18311475
vn -0.81818044 0.5446102 0.1843379
vn -0.95275986 0.0013197326 -0.3037217
vn -0.98589796 0.0014068534 0.16734163
vn -0.43256557 -7.1339601e-11 0.90160245
vn -0.25943506 -1.0241763e-10 0.96576053
vn -0.40353835 -0.36014795 0.84110063
vn -0.23857543 -0.39286542 0.88810951
vn -0.27511373 -0.56791115 0.77575082
vn -1.0315222e-09 1 8.6691472e-09
vn -0.095572144 0.92333233 0.37191856
vn -0.028241178 0.92340267 0.38279235
vn 0.078839868 0.39133906 0.91686314
vn 0.0088663287 0.54914242 0.83568174
vn 0.0051012849 0.87680805 0.48081347
vn 0.036319342 0.92336792 0.38219449
vn 0.28260595 0.54892564 0.78664762
vn 0.24020855 0.3759827 0.89495075
vn 0.16265263 0.87667561 0.45275164
vn 0.098901615 0.92336917 0.37095538
vn -0.02824118 -0.92340267 0.38279235
vn 0.041850526 -0.8122052 0.58186877
vn 0.54242659 -0.41441351 0.73077691
vn 0.52894008 -0.57666504 0.62263942
vn 0.41005468 -0.79975039 0.43846834
vn 0.21979047 -0.92326975 0.31506363
vn 0.40614113 -0.34517536 0.8461107
vn 0.1597767 -0.92336744 0.34909028
vn 0.28140721 -0.55062258 0.78589106
vn 0.16338404 -0.81203258 0.56027561
vn -0.53376973 0.82642484 0.17919771
vn -4.9885878e-09 1 7.9079792e-09
vn -0.28927898 0.88579446 0.3628855
vn -0.46956447 0.70279431 0.53440565
vn -0.52913505 0.56726921 0.63104814
vn -0.54036826 0.42223939 0.72781593
vn -0.21865106 0.92324322 0.31593305
vn -0.40353835 0.36014795 0.84110063
vn -0.27511373 0.56791115 0.77575082
vn -0.16584544 0.86822015 0.46764198
vn -0.16012578 0.92323184 0.34928891
vn 0.096559159 0.99211133 0.079946831
vn 0.54662091 0.78919441 0.2799603
vn 0.90533692 -0.39161405 0.16432731
vn 0.91009486 -0.38170081 0.16134377
vn 0.93604696 -0.044707038 0.34902349
vn 0.98464644 -3.6235412e-10 0.17456046
vn 0.98464644 2.0525845e-10 0.17456046
vn 0.93604696 0.044707038 0.34902349
vn 0.71991289 0.56392747 0.40461251
vn 0.93698382 2.4805435e-12 0.3493728
vn 0.93698382 2.0078628e-10 0.3493728
vn 0.8277818 3.0083047e-11 0.56105018
vn 0.8277818 -4.214043e-11 0.56105018
vn 0.51438588 -0.82595289 0.23067071
vn 0.53711551 -0.82700121 0.1660601
vn 0.28476146 -0.95811707 0.030375332
vn 0.0021523838 -0.99974674 -0.022400832
vn 2.3168843e-10 -1 -3.393153e-10
vn 0.88527215 -0.35478359 -0.30070218
vn 0.34197888 -0.52817845 -0.77722454
vn 0.54245788 -0.61824125 -0.56878567
vn 0.40273872 -6.9539929e-12 -0.91531497
vn 0.40273872 7.3084191e-11 -0.91531497
vn 0.94686735 -6.1248118e-11 -0.32162434
vn 0.94686735 -2.6065017e-10 -0.32162434
vn -0.98464656 -1.0280987e-10 0.17456003
vn -0.93705434 -1.1968959e-10 0.34918365
vn -0.095572144 -0.92333233 0.37191856
vn -0.16584544 -0.86822015 0.46764198
vn 3.5707784e-11 -1 8.2893664e-10
vn -8.3567975e-10 -1 1.0108305e-08
vn 5.0587895e-11 -1 4.7934083e-09
vn 8.8494039e-09 -1 6.7957822e-09
vn 0.40055749 -0.82596809 0.39664894
vn 0.46443719 -0.82596046 0.3195112
vn 0.14518447 -0.82606649 0.54455084
vn 0.053313445 -0.82607943 0.56102628
vn 1.5947537e-09 -1 1.3394843e-08
vn -0.5053274 0.82394415 0.2564376
vn -0.50340915 0.82630312 0.25259122
vn -0.099730693 0.99132669 0.085587576
vn -2.2490203e-09 1 3.0966856e-09
vn -3.6576786e-10 1 7.8065376e-10
vn -1.3393464e-10 1 2.6794522e-10
vn -1.399747e-11 1 -7.0600636e-11
vn -0.85499293 5.4318772e-12 0.51863968
vn 0.51438588 0.82595289 0.23067071
vn 0.46170807 0.88179964 0.09620332
vn 0.54634482 0.82623005 0.13729964
vn 2.4541957e-10 1 1.2885776e-10
vn 2.3326736e-09 1 2.1779747e-09
vn 4.1605706e-09 1 3.4329113e-09
vn -0.91459906 -0.25883707 -0.31066373
vn -0.85867137 -0.48939806 0.15222691
vn -0.98464656 -1.8978918e-10 0.17456003
vn -0.94686735 3.8599124e-12 -0.32162434
vn -0.94686735 2.5206504e-12 -0.32162434
vn -0.42009413 -0.90580279 0.055156711
vn 0.00038775633 -0.99996185 -0.0087261982
vn 6.3100303e-11 -1 -3.9968306e-10
vn 7.7942319e-11 -1 -4.4486925e-10
vn -4.9523025e-11 -1 -1.3948048e-10
vn -0.93476802 -0.069812648 0.34833169
vn -0.53549272 -0.82626557 0.17473632
vn -0.80334884 -0.57007229 0.17218658
vn -0.59085667 -0.79171181 0.15517986
vn -6.4753647e-11 1 -2.8930075e-10
vn -1.9201787e-08 1 7.5822717e-09
vn -0.0053997203 0.99746329 -0.07097739
vn -0.068670876 0.99565452 -0.062900215
vn -0.49165094 0.85588634 0.16043034
vn -0.73858571 0.050252117 0.67228407
vn -0.79375595 0.37163928 0.48149323
vn -0.85499293 1.8769308e-10 0.51863968
vn -0.59611428 6.4734884e-12 0.8028996
vn -0.59611428 3.174897e-10 0.8028996
vn -0.54036826 -0.42223939 0.72781593
vn -0.73952007 3.3447456e-10 0.67313451
vn -0.73952007 1.7250579e-10 0.67313451
vn -7.8086426e-10 -1 5.2250293e-10
vn -1.2529267e-08 -1 5.3549343e-09
vn -0.50340915 -0.82630312 0.25259122
vn -0.73858571 -0.050252136 0.67228407
vn -0.52913505 -0.56726921 0.63104814
vn -0.79375595 -0.37163928 0.48149323
vn -0.78628957 -0.39796004 0.47262719
vn -1.4997291e-09 -1 1.4065654e-09
vn -6.4865744e-09 -1 6.5333556e-09
vn -0.16012578 -0.92323184 0.34928891
vn -0.21865106 -0.92324322 0.31593305
vn -0.5053274 -0.82394415 0.2564376
vn -0.60958183 -0.70296025 0.36641076
vn -0.099730693 -0.99132669 0.085587576
vn -0.28927898 -0.88579446 0.3628855
vn -0.46956447 -0.70279431 0.53440565

# Mesh '' with 194 faces
# usemtl $Material_0
f  1//1 2//1 3//1
f  4//2 5//2 6//2
f  7//3 8//3 6//3
f  9//4 10//4 11//4
f  12//5 10//5 13//5
f  12//6 11//6 10//6
f  14//7 15//7 16//7
f  14//8 17//8 15//8
f  18//9 14//9 19//9
f  14//10 16//10 19//10
f  20//11 21//11 22//11
f  20//12 22//12 23//12
f  23//13 22//13 24//13
f  25//14 24//14 22//14
f  26//15 5//15 4//15
f  26//16 4//16 23//16
f  26//17 23//17 24//17
f  2//18 27//18 15//18
f  27//19 16//19 15//19
f  6//20 28//20 29//20
f  7//21 30//21 8//21
f  6//22 5//22 31//22
f  7//23 6//23 31//23
f  32//24 33//24 34//24
f  13//25 10//25 35//25
f  27//26 13//26 35//26
f  27//27 35//27 16//27
f  19//28 16//28 35//28
f  34//29 36//29 21//29
f  25//30 22//30 36//30
f  36//31 22//31 21//31
f  37//32 34//32 21//32
f  37//33 21//33 20//33
f  38//34 39//34 40//34
f  26//35 41//35 5//35
f  41//36 31//36 5//36
f  42//37 31//37 41//37
f  43//38 44//38 45//38
f  44//39 46//39 45//39
f  46//40 47//40 45//40
f  8//41 48//41 6//41
f  6//42 48//42 28//42
f  48//43 29//43 28//43
f  49//44 30//44 3//44
f  2//45 49//45 3//45
f  2//46 15//46 49//46
f  17//47 49//47 15//47
f  1//48 3//48 50//48
f  50//49 3//49 30//49
f  43//50 51//50 44//50
f  52//51 53//51 54//51
f  52//52 55//52 53//52
f  52//53 31//53 42//53
f  52//54 7//54 31//54
f  56//55 35//55 10//55
f  19//56 35//56 56//56
f  9//57 56//57 10//57
f  18//58 19//58 57//58
f  18//59 57//59 45//59
f  43//60 45//60 57//60
f  19//61 58//61 57//61
f  43//62 57//62 58//62
f  33//63 59//63 34//63
f  34//64 59//64 36//64
f  60//65 59//65 33//65
f  25//66 36//66 59//66
f  60//67 25//67 59//67
f  38//68 40//68 61//68
f  37//69 61//69 40//69
f  37//70 38//70 61//70
f  20//71 23//71 62//71
f  37//72 20//72 62//72
f  37//73 62//73 38//73
f  38//74 62//74 39//74
f  4//75 6//75 62//75
f  4//76 62//76 23//76
f  6//77 29//77 62//77
f  62//78 29//78 39//78
f  63//79 64//79 25//79
f  25//80 64//80 24//80
f  42//81 41//81 65//81
f  52//82 42//82 65//82
f  52//83 65//83 66//83
f  66//84 65//84 67//84
f  26//85 65//85 41//85
f  67//86 65//86 68//86
f  26//87 24//87 65//87
f  65//88 24//88 68//88
f  18//89 45//89 69//89
f  70//90 40//90 71//90
f  72//91 71//91 47//91
f  46//92 72//92 47//92
f  73//93 72//93 46//93
f  73//94 32//94 72//94
f  70//95 71//95 72//95
f  32//96 34//96 72//96
f  37//97 72//97 34//97
f  37//98 40//98 72//98
f  70//99 72//99 40//99
f  8//100 74//100 48//100
f  8//101 30//101 74//101
f  75//102 76//102 53//102
f  77//103 76//103 75//103
f  53//104 76//104 54//104
f  1//105 76//105 77//105
f  1//106 50//106 76//106
f  50//107 30//107 78//107
f  7//108 78//108 30//108
f  54//109 76//109 78//109
f  76//110 50//110 78//110
f  52//111 78//111 7//111
f  52//112 54//112 78//112
f  55//113 79//113 53//113
f  75//114 53//114 79//114
f  12//115 75//115 79//115
f  12//116 79//116 11//116
f  55//117 66//117 79//117
f  77//118 75//118 80//118
f  12//119 13//119 80//119
f  12//120 80//120 75//120
f  27//121 80//121 13//121
f  2//122 80//122 27//122
f  1//123 80//123 2//123
f  1//124 77//124 80//124
f  43//125 58//125 81//125
f  43//126 81//126 51//126
f  63//127 25//127 82//127
f  60//128 82//128 25//128
f  82//129 67//129 68//129
f  63//130 82//130 64//130
f  82//131 68//131 64//131
f  55//132 83//132 66//132
f  52//133 66//133 83//133
f  52//134 83//134 55//134
f  24//135 84//135 68//135
f  64//136 84//136 24//136
f  64//137 68//137 84//137
f  85//138 45//138 47//138
f  69//139 45//139 85//139
f  85//140 47//140 71//140
f  85//141 71//141 40//141
f  85//142 40//142 39//142
f  85//143 39//143 29//143
f  17//144 85//144 29//144
f  51//145 86//145 44//145
f  30//146 87//146 74//146
f  17//147 87//147 49//147
f  49//148 87//148 30//148
f  17//149 29//149 87//149
f  48//150 87//150 29//150
f  48//151 74//151 87//151
f  9//152 88//152 56//152
f  9//153 81//153 88//153
f  81//154 58//154 88//154
f  19//155 88//155 58//155
f  19//156 56//156 88//156
f  89//157 9//157 11//157
f  89//158 11//158 79//158
f  89//159 66//159 67//159
f  89//160 79//160 66//160
f  82//161 89//161 67//161
f  90//162 51//162 81//162
f  90//163 89//163 91//163
f  90//164 81//164 9//164
f  90//165 9//165 89//165
f  17//166 92//166 85//166
f  69//167 85//167 92//167
f  14//168 92//168 17//168
f  18//169 92//169 14//169
f  18//170 69//170 92//170
f  93//171 73//171 46//171
f  93//172 46//172 44//172
f  86//173 93//173 44//173
f  94//174 33//174 32//174
f  94//175 32//175 73//175
f  60//176 33//176 94//176
f  94//177 73//177 93//177
f  86//178 94//178 93//178
f  95//179 89//179 82//179
f  95//180 91//180 89//180
f  90//181 91//181 95//181
f  96//182 94//182 86//182
f  60//183 94//183 96//183
f  96//184 86//184 51//184
f  96//185 51//185 90//185
f  95//186 82//186 97//186
f  98//187 95//187 97//187
f  60//188 97//188 82//188
f  60//189 98//189 97//189
f  90//190 95//190 99//190
f  96//191 90//191 99//191
f  98//192 99//192 95//192
f  60//193 99//193 98//193
f  60//194 96//194 99//194

