# File produced by Open Asset Import Library (http://www.assimp.sf.net)
# (assimp v5.0.0)

mtllib 8.mtl

# 100 vertex positions
v  0.022396499 0.0021510001 -0.023
v  0.022362299 -0.0024840001 0.023
v  0.022362299 -0.0024840001 -0.023
v  -0.015978601 0.0131796 0.025
v  -0.017270099 0.0142452 0.023736
v  -0.0213822 0.0065438999 0.023736
v  -0.022396499 -0.0021510001 0.023
v  -0.0206181 -0.0019809001 0.025
v  -0.022362299 0.0024840001 0.023
v  -0.0069209998 -0.021409201 0.023
v  -0.0024840001 -0.022362299 0.023
v  -0.0062477998 -0.0204165 0.02486
v  -0.021481199 -0.0066951001 0.023
v  -0.0188541 -0.0100197 0.02486
v  -0.0109188 -0.0196731 0.023
v  -0.0109188 -0.0196731 -0.023
v  0.021481199 0.0066951001 0.023
v  0.019700101 0.0108693 -0.023
v  0.0197514 0.0104967 0.023736
v  0.021409201 -0.0069209998 -0.023
v  0.0196731 -0.0109188 -0.023
v  0.0196731 -0.0109188 0.023
v  -0.019782901 0.0060542999 0.025
v  -0.0097091999 0.0182673 0.025
v  0.0065448 0.021388501 -0.023736
v  0.0024840001 0.022362299 0.023
v  0.0065448 0.021388501 0.023736
v  0.0109188 0.0196731 -0.023
v  -0.017358299 0.0143163 -0.023
v  -0.014463 0.017235899 0.023
v  -0.0108702 0.019700101 0.023
v  -0.0196731 0.0109188 0.023
v  -0.022362299 0.0024840001 -0.023
v  0.0206163 0.0019799999 -0.025
v  -0.0014058 0.0145719 -0.025
v  0.0060552 0.019788301 -0.025
v  0.0066951001 -0.021481199 0.023
v  0.0021393001 -0.0222858 0.023736
v  0.0066951001 -0.021481199 -0.023
v  0.0108702 -0.019700101 0.023
v  0.014463 -0.017235899 -0.023
v  0.014463 -0.017235899 0.023
v  -0.0065906998 -0.0079910997 0.025
v  -0.019700101 -0.0108693 0.023
v  -0.017235 -0.014463 0.023
v  -0.0197469 -0.0104931 -0.023736
v  -0.017235 -0.014463 -0.023
v  -0.0135999 -0.0164898 0.02486
v  -0.0143163 -0.017358299 -0.023
v  0.021481199 0.0066951001 -0.023
v  0.018274499 0.0097110001 0.025
v  0.0135927 0.0164808 0.02486
v  0.0060552 0.019788301 0.025
v  0.0206163 0.0019799999 0.025
v  0.0159795 -0.0131778 0.025
v  0.020414701 -0.0062477998 0.02486
v  0.021409201 -0.0069209998 0.023
v  -0.0021510001 0.022396499 0.023
v  -0.0019799999 0.0206163 0.025
v  -0.0066951001 0.021481199 -0.023
v  -0.0108702 0.019700101 -0.023
v  -0.0019799999 0.0206163 -0.025
v  -0.0066951001 0.021481199 0.023
v  -0.0222858 -0.0021410999 -0.023736
v  -0.021409201 0.0069209998 -0.023
v  -0.0024840001 -0.022362299 -0.023
v  0.0159795 -0.0131778 -0.025
v  0.0097091999 -0.018269099 -0.025
v  0.017235899 0.014463 -0.023
v  0.018274499 0.0097110001 -0.025
v  0.020414701 -0.0062477998 -0.02486
v  0.0019799999 -0.0206181 0.025
v  0.017358299 -0.0143163 -0.023
v  0.010494 -0.019746 -0.023736
v  0.0100197 -0.0188541 0.02486
v  -0.0143163 -0.017358299 0.023
v  -0.0135999 -0.0164898 -0.02486
v  0.0222831 0.0021402 0.023736
v  0.0143163 0.017358299 -0.023
v  0.0143163 0.017358299 0.023
v  -0.014463 0.017235899 -0.023
v  -0.0164898 0.0136017 -0.02486
v  -0.0100197 0.018852299 -0.02486
v  -0.0021402 0.0222831 -0.023736
v  -0.021481199 -0.0066951001 -0.023
v  -0.0196731 0.0109188 -0.023
v  0.0021393001 -0.0222858 -0.023736
v  0.0019799999 -0.0206181 -0.025
v  0.0013986001 -0.0145809 -0.025
v  -0.019782901 0.0060542999 -0.025
v  -0.0206181 -0.0019809001 -0.025
v  0.0131706 0.015969601 -0.025
v  0.017271901 -0.0142434 0.023736
v  -0.0060534002 -0.019782901 -0.025
v  -0.018269099 -0.0097083002 -0.025
v  0.0109188 0.0196731 0.023
v  0.017235899 0.014463 0.023
v  0.0024840001 0.022362299 -0.023
v  -0.0079929 0.0065853 -0.025
v  -0.0065430002 -0.021383099 -0.023736

# 0 UV coordinates

# 196 vertex normals
vn 0.99997276 -0.0073784464 -6.7773565e-11
vn -0.53825921 0.2874029 0.79226041
vn -0.7475155 0.0055156546 0.66422141
vn -0.70489991 0.04180643 0.70807368
vn -0.18026075 -0.83917522 0.51311886
vn -0.73284006 -0.14761308 0.6641956
vn -0.7010141 -0.16590659 0.69358075
vn -0.33645606 -0.77477306 0.53527939
vn -0.39832604 -0.9172439 -1.3962129e-10
vn 0.91036946 0.41378999 0.0022996604
vn 0.97769785 -0.21001638 -5.6249894e-11
vn 0.9172439 -0.39832604 -3.8356707e-11
vn -0.60687363 0.063079976 0.79229116
vn -4.1184776e-09 9.0790286e-10 1
vn -0.53822052 0.28736365 0.79230094
vn -0.38448575 0.47378883 0.79227197
vn 0.23319325 0.97243041 6.7533007e-11
vn 0.3651073 0.93096542 5.7472055e-11
vn -0.72883433 0.68468583 0.0024170727
vn -0.42073369 0.56882113 0.70670056
vn -0.41643485 0.6071611 0.67671072
vn -0.70525014 0.37656748 0.60068226
vn -0.81086159 0.58523297 0.0024205754
vn -0.99997276 0.0073784464 -1.0423273e-11
vn 0.74718291 -0.0055131991 -0.6645956
vn 1.1323911e-10 9.6271401e-11 -1
vn 0.17391877 -0.98475999 1.4390303e-10
vn -0.08753439 -0.77159727 0.63005984
vn 0.392387 -0.91980022 1.619673e-10
vn 0.56561685 -0.82466817 -2.2656155e-11
vn -4.3774157e-10 -2.1849604e-10 1
vn -0.69663101 -0.47785452 0.53512645
vn -0.78952658 -0.33688486 0.51298767
vn -0.84475189 -0.53514695 -0.0034617626
vn -0.82463795 -0.56566095 1.2928147e-10
vn -0.36241242 -0.67855763 0.63891846
vn -0.029365437 -0.023846911 0.99928427
vn -0.59727305 -0.48503 0.63875723
vn -0.56305832 -0.82641715 -1.4490914e-10
vn 0.98031092 0.19746016 -2.9980296e-11
vn 0.9197697 0.39245856 -4.9972748e-11
vn 0.7324869 0.14754194 -0.66460091
vn 0.4910419 0.3560324 0.79505897
vn 0.2560024 0.54975015 0.79513365
vn 0.039617177 0.048038077 0.99805951
vn 0.060346857 -0.01846022 0.99800676
vn 1.3395609e-09 1.3543618e-09 1
vn 0.83882564 -0.18018565 0.51371652
vn 0.77446216 -0.33632109 0.53581381
vn 0.97769785 -0.21001638 1.1485496e-10
vn 0.9172439 -0.39832604 1.1345741e-10
vn 0.0055132001 0.74718291 0.6645956
vn 0.062527373 0.60678756 0.7924009
vn 0.040981248 0.70558178 0.70744252
vn 6.7304901e-10 8.0938295e-10 1
vn -7.8083912e-10 1.6788334e-09 1
vn 1.4049652e-10 1.6366894e-10 1
vn 4.9715582e-11 1.154246e-10 1
vn -0.392387 0.91980022 -1.0938767e-10
vn -4.526306e-10 9.0563301e-10 -1
vn 0.062527373 0.60678756 -0.7924009
vn -0.19746014 0.98031092 1.4281892e-10
vn -0.392387 0.91980022 1.0712961e-10
vn -0.29358885 0.68820602 0.66345918
vn -0.14754194 0.7324869 0.66460091
vn -0.19566897 0.64383322 0.73972458
vn -0.9998666 -0.016160313 -0.002371707
vn -0.93124211 0.36438447 0.0034781273
vn -0.97217381 0.23424783 0.0024517379
vn -0.97769785 0.21001638 -2.0640045e-11
vn 0.016544104 -0.99986315 8.7004376e-11
vn -0.21001638 -0.97769785 7.5667431e-11
vn 4.8977244e-10 -4.1606274e-10 -1
vn 0.60834229 0.41714051 -0.67521363
vn 0.68948936 0.29419973 -0.66185421
vn 0.64463949 0.19526808 -0.73912811
vn 0.060346857 -0.01846022 -0.99800676
vn 0.60821182 -0.37512335 -0.69954336
vn 0.77446216 -0.33632109 -0.53581381
vn 0.83882564 -0.18018565 -0.51371652
vn 0.71952307 -0.02943605 -0.69384438
vn -0.028369375 -0.60551363 0.79532915
vn -0.017820882 -0.033366669 0.99928427
vn -8.5888206e-11 -4.8993733e-11 1
vn -2.3918004e-10 -1.3044618e-10 1
vn -4.6597165e-10 -2.8438324e-10 1
vn -0.013236887 -0.016050076 0.99978358
vn 0.61725384 -0.4205502 -0.66493249
vn 0.53031808 -0.52590418 -0.66497183
vn 0.82641715 -0.56305832 -5.4635685e-11
vn 0.71005553 -0.70414567 -1.5923374e-12
vn 0.41508076 -0.90978128 -0.0024476803
vn 0.53496212 -0.8448689 -0.0034764106
vn 0.46431446 -0.52503932 -0.71326417
vn 0.38461703 -0.47368351 -0.7922712
vn 0.47775954 -0.69657242 0.5352875
vn 0.029598245 -0.055691391 0.9980092
vn 0.33679807 -0.78949338 0.5130958
vn 0.23263764 -0.7406671 0.63031101
vn 0.14310429 -0.58910179 0.79528624
vn -0.60316044 -0.60803533 0.51622713
vn -0.48223218 -0.70778626 0.51622742
vn -0.56305832 -0.82641715 -2.0735635e-12
vn -0.7042551 -0.70994705 1.0247964e-10
vn -0.7042551 -0.70994705 -2.1213087e-11
vn -0.48223218 -0.70778626 -0.51622742
vn -0.59840417 -0.4953745 -0.62969559
vn -0.60316044 -0.60803533 -0.51622719
vn 0.76502091 0.23177207 0.60085332
vn 0.5839504 0.17691463 0.79227716
vn 0.58387065 0.17686056 0.79234803
vn 0.99985695 0.016738016 0.0024299095
vn 0.98478395 0.17376602 0.0024296239
vn 0.77099264 -0.087202109 0.63084555
vn 0.60573107 -0.028371882 0.79516345
vn 0.56305832 0.82641715 4.7573945e-11
vn -0.60830921 0.60324621 -0.51580417
vn -0.71005553 0.70414567 1.1680562e-10
vn -0.56561685 0.82466817 9.4251329e-11
vn -0.56561685 0.82466817 -1.0913731e-10
vn -0.33666593 0.78918362 -0.5136587
vn -0.023849299 0.029388521 -0.99928349
vn -0.48475304 0.59734148 -0.6389035
vn -0.47758701 0.69632089 -0.53576851
vn 0.062510684 0.60687023 -0.79233891
vn -0.17376602 0.98478395 -0.0024296236
vn -0.23227268 0.74018979 -0.63100594
vn -0.14313528 0.58925176 -0.79516959
vn -0.98031092 -0.19746016 5.2044369e-11
vn -0.98467982 -0.17435624 -0.0023692464
vn -0.76407164 -0.23226799 -0.60186881
vn -0.90982419 -0.41498679 -0.0024293764
vn -0.9197697 -0.39245856 1.0883516e-12
vn -0.70795679 0.48234835 -0.51588494
vn -0.82641715 0.56305832 5.9930949e-12
vn -0.9172439 0.39832604 2.006012e-11
vn 0.23218916 -0.7637887 -0.60225827
vn 0.17391877 -0.98475999 -2.2157903e-10
vn 0.016544105 -0.99986315 -1.8342627e-10
vn 0.177376 -0.58364171 -0.79240149
vn 0.17746489 -0.5837726 -0.79228514
vn 5.2152789e-11 -1.0562953e-11 -1
vn 3.2520364e-10 -3.2741856e-10 -1
vn -0.65674311 0.29939058 -0.69213706
vn -0.67554259 0.29336387 -0.6764465
vn -0.023576358 0.028823484 -0.99930644
vn -0.73178011 0.15719151 -0.66316569
vn -7.5145717e-10 8.7724533e-10 -1
vn -0.69386029 0.10196137 -0.71285462
vn -0.60667515 0.063059345 -0.79244483
vn 0.52432585 0.52872646 -0.66748089
vn 0.52151936 0.42529991 -0.7396875
vn 0.41927388 0.61538053 -0.66747004
vn 6.3086103e-10 5.1950921e-10 -1
vn 1.152673e-09 7.9723378e-10 -1
vn 0.28850943 0.53758085 -0.79231882
vn 0.3564257 0.60240042 -0.71419495
vn 0.72882122 -0.68469983 0.0024153551
vn 0.81091875 -0.58515382 0.0024118505
vn 0.40822279 -0.44822571 0.79526591
vn 0.48462409 -0.60925978 0.627648
vn 0.51780134 -0.31532684 0.79526776
vn 0.69031686 -0.35959691 0.62781578
vn -0.063071258 -0.60665387 -0.79246014
vn 8.8581906e-11 -1.5259861e-09 -1
vn 3.6047745e-11 -9.7897157e-10 -1
vn -0.49164921 -0.35492641 -0.79517817
vn -0.5835827 -0.17740165 -0.79243922
vn -0.58357662 -0.17739753 -0.79244459
vn -0.039322119 -0.047679029 -0.99808842
vn -3.979361e-10 -2.2703987e-10 -1
vn -4.2175011e-10 -3.2316366e-10 -1
vn 0.37293267 0.68011767 0.63115859
vn 0.48091355 0.70585084 0.52009296
vn 0.3651073 0.93096542 1.0239035e-10
vn 0.56305832 0.82641715 5.9290794e-11
vn 0.59670198 0.49556017 0.63116306
vn 0.60141999 0.60646766 0.52008748
vn 0.84419531 0.53602529 0.0033468087
vn 0.82473421 0.56552052 -1.1823725e-10
vn 0.70414567 0.71005553 -9.5927322e-11
vn 0.70414567 0.71005553 3.1348757e-11
vn 0.23319325 0.97243041 4.4038481e-11
vn 0.081938684 0.79548234 -0.60041142
vn 0.0073784455 0.99997276 2.689788e-11
vn -0.016738014 0.99985695 -0.0024299093
vn -2.0845138e-10 -3.5632299e-11 -1
vn -3.1560352e-10 -8.3175938e-11 -1
vn -4.025438e-10 1.2444928e-10 -1
vn -3.9870923e-10 3.9308043e-11 -1
vn -0.3644841 -0.93120313 -0.0034679992
vn -0.23409592 -0.97221047 -0.0024363247
vn -0.37231648 -0.68162614 -0.62989384
vn -0.25483429 -0.5501734 -0.79521614
vn -0.08261174 -0.79457074 -0.60152525
vn -0.063074842 -0.60666221 -0.79245347

# Mesh '' with 196 faces
# usemtl $Material_0
f  1//1 2//1 3//1
f  4//2 5//2 6//2
f  7//3 8//3 9//3
f  8//4 6//4 9//4
f  10//5 11//5 12//5
f  7//6 13//6 8//6
f  13//7 14//7 8//7
f  10//8 12//8 15//8
f  10//9 15//9 16//9
f  17//10 18//10 19//10
f  2//11 20//11 3//11
f  21//12 20//12 22//12
f  8//13 23//13 6//13
f  8//14 4//14 23//14
f  4//15 6//15 23//15
f  4//16 24//16 5//16
f  25//17 26//17 27//17
f  25//18 27//18 28//18
f  29//19 5//19 30//19
f  30//20 5//20 24//20
f  31//21 30//21 24//21
f  32//22 6//22 5//22
f  32//23 5//23 29//23
f  7//24 9//24 33//24
f  1//25 3//25 34//25
f  35//26 36//26 34//26
f  37//27 38//27 39//27
f  12//28 11//28 38//28
f  37//29 39//29 40//29
f  40//30 41//30 42//30
f  8//31 43//31 4//31
f  44//32 45//32 14//32
f  44//33 14//33 13//33
f  44//34 46//34 47//34
f  44//35 47//35 45//35
f  15//36 12//36 48//36
f  48//37 8//37 14//37
f  45//38 48//38 14//38
f  16//39 15//39 49//39
f  1//40 50//40 17//40
f  17//41 50//41 18//41
f  1//42 34//42 50//42
f  51//43 19//43 52//43
f  52//44 27//44 53//44
f  51//45 52//45 53//45
f  54//46 55//46 56//46
f  54//47 51//47 53//47
f  2//48 56//48 57//48
f  56//49 22//49 57//49
f  2//50 57//50 20//50
f  22//51 20//51 57//51
f  58//52 59//52 26//52
f  27//53 59//53 53//53
f  26//54 59//54 27//54
f  54//55 53//55 59//55
f  4//56 59//56 24//56
f  54//57 59//57 55//57
f  55//58 59//58 4//58
f  60//59 61//59 31//59
f  35//60 62//60 36//60
f  25//61 36//61 62//61
f  60//62 63//62 58//62
f  60//63 31//63 63//63
f  31//64 24//64 63//64
f  58//65 63//65 59//65
f  59//66 63//66 24//66
f  7//67 33//67 64//67
f  32//68 65//68 6//68
f  9//69 6//69 65//69
f  9//70 65//70 33//70
f  66//71 38//71 11//71
f  66//72 11//72 10//72
f  67//73 68//73 34//73
f  69//74 18//74 70//74
f  18//75 50//75 70//75
f  50//76 34//76 70//76
f  67//77 34//77 71//77
f  67//78 71//78 21//78
f  21//79 71//79 20//79
f  3//80 20//80 71//80
f  3//81 71//81 34//81
f  72//82 12//82 38//82
f  48//83 12//83 72//83
f  72//84 55//84 4//84
f  72//85 4//85 43//85
f  72//86 43//86 8//86
f  48//87 72//87 8//87
f  67//88 21//88 73//88
f  67//89 73//89 41//89
f  21//90 22//90 73//90
f  41//91 73//91 42//91
f  74//92 40//92 39//92
f  74//93 41//93 40//93
f  74//94 67//94 41//94
f  74//95 68//95 67//95
f  40//96 42//96 75//96
f  72//97 75//97 55//97
f  37//98 40//98 75//98
f  37//99 75//99 38//99
f  72//100 38//100 75//100
f  45//101 76//101 48//101
f  15//102 48//102 76//102
f  49//103 15//103 76//103
f  47//104 76//104 45//104
f  47//105 49//105 76//105
f  77//106 16//106 49//106
f  77//107 47//107 46//107
f  77//108 49//108 47//108
f  17//109 19//109 78//109
f  51//110 78//110 19//110
f  54//111 78//111 51//111
f  1//112 78//112 2//112
f  1//113 17//113 78//113
f  2//114 78//114 56//114
f  54//115 56//115 78//115
f  79//116 28//116 80//116
f  29//117 81//117 82//117
f  29//118 30//118 81//118
f  81//119 30//119 31//119
f  81//120 31//120 61//120
f  83//121 61//121 60//121
f  83//122 62//122 82//122
f  83//123 82//123 81//123
f  83//124 81//124 61//124
f  84//125 25//125 62//125
f  60//126 58//126 84//126
f  83//127 60//127 84//127
f  83//128 84//128 62//128
f  7//129 85//129 13//129
f  7//130 64//130 85//130
f  85//131 64//131 46//131
f  44//132 85//132 46//132
f  44//133 13//133 85//133
f  29//134 82//134 86//134
f  32//135 29//135 86//135
f  32//136 86//136 65//136
f  87//137 74//137 39//137
f  87//138 39//138 38//138
f  87//139 38//139 66//139
f  87//140 88//140 68//140
f  87//141 68//141 74//141
f  35//142 34//142 89//142
f  89//143 34//143 68//143
f  90//144 86//144 82//144
f  90//145 65//145 86//145
f  90//146 82//146 62//146
f  90//147 33//147 65//147
f  90//148 62//148 35//148
f  90//149 64//149 33//149
f  90//150 91//150 64//150
f  79//151 69//151 92//151
f  69//152 70//152 92//152
f  79//153 92//153 28//153
f  36//154 92//154 34//154
f  34//155 92//155 70//155
f  25//156 92//156 36//156
f  25//157 28//157 92//157
f  42//158 73//158 93//158
f  22//159 93//159 73//159
f  55//160 75//160 93//160
f  75//161 42//161 93//161
f  56//162 55//162 93//162
f  56//163 93//163 22//163
f  87//164 94//164 88//164
f  94//165 68//165 88//165
f  94//166 89//166 68//166
f  77//167 46//167 95//167
f  64//168 95//168 46//168
f  91//169 95//169 64//169
f  94//170 77//170 95//170
f  91//171 89//171 95//171
f  94//172 95//172 89//172
f  52//173 96//173 27//173
f  80//174 96//174 52//174
f  28//175 27//175 96//175
f  80//176 28//176 96//176
f  19//177 97//177 52//177
f  80//178 52//178 97//178
f  18//179 97//179 19//179
f  69//180 97//180 18//180
f  79//181 97//181 69//181
f  79//182 80//182 97//182
f  25//183 98//183 26//183
f  84//184 98//184 25//184
f  58//185 26//185 98//185
f  58//186 98//186 84//186
f  35//187 89//187 99//187
f  91//188 99//188 89//188
f  90//189 35//189 99//189
f  90//190 99//190 91//190
f  10//191 16//191 100//191
f  66//192 10//192 100//192
f  77//193 100//193 16//193
f  94//194 100//194 77//194
f  87//195 66//195 100//195
f  87//196 100//196 94//196

