# File produced by Open Asset Import Library (http://www.assimp.sf.net)
# (assimp v5.0.0)

mtllib cylinder.mtl

# 64 vertex positions
v  0.021578001 -0.0042920001 0.022500001
v  0.022 2.0144561e-18 -0.022500001
v  0.022 2.0144561e-18 0.022500001
v  0.021578001 -0.0042920001 -0.022500001
v  0.020324999 -0.0084189996 0.022500001
v  0.020324999 -0.0084189996 -0.022500001
v  0.018292001 -0.012222 0.022500001
v  0.018292001 -0.012222 -0.022500001
v  0.015556 -0.015556 0.022500001
v  0.015556 -0.015556 -0.022500001
v  0.012222 -0.018292001 0.022500001
v  0.012222 -0.018292001 -0.022500001
v  0.0084189996 -0.020324999 0.022500001
v  0.0084189996 -0.020324999 -0.022500001
v  0.0042920001 -0.021578001 0.022500001
v  0.0042920001 -0.021578001 -0.022500001
v  1.8846748e-18 -0.022 0.022500001
v  1.8846748e-18 -0.022 -0.022500001
v  -0.0042920001 -0.021578001 0.022500001
v  -0.0042920001 -0.021578001 -0.022500001
v  -0.0084189996 -0.020324999 0.022500001
v  -0.0084189996 -0.020324999 -0.022500001
v  -0.012222 -0.018292001 0.022500001
v  -0.012222 -0.018292001 -0.022500001
v  -0.015556 -0.015556 0.022500001
v  -0.015556 -0.015556 -0.022500001
v  -0.018292001 -0.012222 0.022500001
v  -0.018292001 -0.012222 -0.022500001
v  -0.020324999 -0.0084189996 0.022500001
v  -0.020324999 -0.0084189996 -0.022500001
v  -0.021578001 -0.0042920001 0.022500001
v  -0.021578001 -0.0042920001 -0.022500001
v  -0.022 -5.8762911e-19 0.022500001
v  -0.022 -5.8762911e-19 -0.022500001
v  -0.021578001 0.0042920001 0.022500001
v  -0.021578001 0.0042920001 -0.022500001
v  -0.020324999 0.0084189996 0.022500001
v  -0.020324999 0.0084189996 -0.022500001
v  -0.018292001 0.012222 0.022500001
v  -0.018292001 0.012222 -0.022500001
v  -0.015556 0.015556 0.022500001
v  -0.015556 0.015556 -0.022500001
v  -0.012222 0.018292001 0.022500001
v  -0.012222 0.018292001 -0.022500001
v  -0.0084189996 0.020324999 0.022500001
v  -0.0084189996 0.020324999 -0.022500001
v  -0.0042920001 0.021578001 0.022500001
v  -0.0042920001 0.021578001 -0.022500001
v  -7.1741044e-19 0.022 0.022500001
v  -7.1741044e-19 0.022 -0.022500001
v  0.0042920001 0.021578001 0.022500001
v  0.0042920001 0.021578001 -0.022500001
v  0.0084189996 0.020324999 0.022500001
v  0.0084189996 0.020324999 -0.022500001
v  0.012222 0.018292001 0.022500001
v  0.012222 0.018292001 -0.022500001
v  0.015556 0.015556 0.022500001
v  0.015556 0.015556 -0.022500001
v  0.018292001 0.012222 0.022500001
v  0.018292001 0.012222 -0.022500001
v  0.020324999 0.0084189996 0.022500001
v  0.020324999 0.0084189996 -0.022500001
v  0.021578001 0.0042909998 0.022500001
v  0.021578001 0.0042909998 -0.022500001

# 0 UV coordinates

# 34 vertex normals
vn 0.99520111 -0.097850397 0
vn 0.95687014 -0.29051605 0
vn 0.88189691 -0.47144231 0
vn 0.77302665 -0.63437355 0
vn 0.63437355 -0.77302665 0
vn 0.47144231 -0.88189691 0
vn 0.29051605 -0.95687014 0
vn 0.097850397 -0.99520111 0
vn -0.097850397 -0.99520111 0
vn -0.29051605 -0.95687014 0
vn -0.47144231 -0.88189691 0
vn -0.63437355 -0.77302665 0
vn -0.77302665 -0.63437355 0
vn -0.88189691 -0.47144231 0
vn -0.95687014 -0.29051605 0
vn -0.99520111 -0.097850397 0
vn -0.99520111 0.097850397 0
vn -0.95687014 0.29051605 0
vn -0.88189691 0.47144231 0
vn -0.77302665 0.63437355 0
vn -0.63437355 0.77302665 0
vn -0.47144231 0.88189691 0
vn -0.29051605 0.95687014 0
vn -0.097850397 0.99520111 0
vn 0.097850397 0.99520111 0
vn 0.29051605 0.95687014 0
vn 0.47144231 0.88189691 0
vn 0.63437355 0.77302665 0
vn 0.77302665 0.63437355 0
vn 0.88189691 0.47144231 0
vn 0 0 1
vn 0.95688969 0.29045159 0
vn 0.99519891 0.097872987 0
vn 0 0 -1

# Mesh '' with 124 faces
# usemtl $Material_0
f  1//1 2//1 3//1
f  4//1 2//1 1//1
f  5//2 4//2 1//2
f  6//2 4//2 5//2
f  7//3 6//3 5//3
f  8//3 6//3 7//3
f  9//4 8//4 7//4
f  10//4 8//4 9//4
f  11//5 10//5 9//5
f  12//5 10//5 11//5
f  13//6 12//6 11//6
f  14//6 12//6 13//6
f  15//7 14//7 13//7
f  16//7 14//7 15//7
f  17//8 16//8 15//8
f  18//8 16//8 17//8
f  19//9 18//9 17//9
f  20//9 18//9 19//9
f  21//10 20//10 19//10
f  22//10 20//10 21//10
f  22//11 21//11 23//11
f  24//11 22//11 23//11
f  24//12 23//12 25//12
f  26//12 24//12 25//12
f  26//13 25//13 27//13
f  28//13 26//13 27//13
f  28//14 27//14 29//14
f  30//14 28//14 29//14
f  30//15 29//15 31//15
f  32//15 30//15 31//15
f  32//16 31//16 33//16
f  34//16 32//16 33//16
f  34//17 33//17 35//17
f  36//17 34//17 35//17
f  36//18 35//18 37//18
f  38//18 36//18 37//18
f  38//19 37//19 39//19
f  40//19 38//19 39//19
f  40//20 39//20 41//20
f  42//20 40//20 41//20
f  42//21 41//21 43//21
f  44//21 42//21 43//21
f  44//22 43//22 45//22
f  46//22 44//22 45//22
f  46//23 45//23 47//23
f  48//23 46//23 47//23
f  48//24 47//24 49//24
f  50//24 48//24 49//24
f  50//25 49//25 51//25
f  52//25 50//25 51//25
f  52//26 51//26 53//26
f  54//26 52//26 53//26
f  54//27 53//27 55//27
f  56//27 54//27 55//27
f  56//28 55//28 57//28
f  58//28 56//28 57//28
f  58//29 57//29 59//29
f  60//29 58//29 59//29
f  60//30 59//30 61//30
f  62//30 60//30 61//30
f  5//31 1//31 3//31
f  63//31 5//31 3//31
f  63//31 61//31 5//31
f  5//31 61//31 59//31
f  5//31 59//31 57//31
f  5//31 57//31 55//31
f  53//31 5//31 55//31
f  51//31 5//31 53//31
f  49//31 5//31 51//31
f  47//31 5//31 49//31
f  45//31 5//31 47//31
f  43//31 5//31 45//31
f  41//31 5//31 43//31
f  39//31 5//31 41//31
f  37//31 5//31 39//31
f  35//31 5//31 37//31
f  33//31 5//31 35//31
f  31//31 5//31 33//31
f  29//31 5//31 31//31
f  27//31 5//31 29//31
f  25//31 5//31 27//31
f  23//31 5//31 25//31
f  21//31 5//31 23//31
f  21//31 19//31 5//31
f  19//31 17//31 5//31
f  17//31 15//31 5//31
f  15//31 13//31 5//31
f  13//31 11//31 5//31
f  11//31 9//31 5//31
f  9//31 7//31 5//31
f  62//32 61//32 63//32
f  62//32 63//32 64//32
f  64//33 63//33 3//33
f  64//33 3//33 2//33
f  64//34 2//34 4//34
f  64//34 4//34 6//34
f  64//34 6//34 8//34
f  64//34 8//34 10//34
f  64//34 10//34 12//34
f  64//34 12//34 14//34
f  64//34 14//34 16//34
f  64//34 16//34 18//34
f  64//34 18//34 20//34
f  64//34 20//34 22//34
f  64//34 22//34 24//34
f  64//34 24//34 26//34
f  64//34 26//34 28//34
f  64//34 28//34 30//34
f  32//34 64//34 30//34
f  34//34 64//34 32//34
f  36//34 64//34 34//34
f  38//34 64//34 36//34
f  40//34 64//34 38//34
f  42//34 64//34 40//34
f  44//34 64//34 42//34
f  46//34 64//34 44//34
f  48//34 64//34 46//34
f  50//34 64//34 48//34
f  52//34 64//34 50//34
f  54//34 64//34 52//34
f  56//34 64//34 54//34
f  58//34 64//34 56//34
f  60//34 64//34 58//34
f  62//34 64//34 60//34

