# File produced by Open Asset Import Library (http://www.assimp.sf.net)
# (assimp v5.0.0)

mtllib half-cylinder.mtl

# 34 vertex positions
v  0.021578001 0.0066960002 0.022500001
v  0.022 0.010988 -0.022500001
v  0.022 0.010988 0.022500001
v  0.021578001 0.0066960002 -0.022500001
v  0.020324999 0.00257 0.022500001
v  0.020324999 0.00257 -0.022500001
v  0.018292001 -0.001234 0.022500001
v  0.018292001 -0.001234 -0.022500001
v  0.015556 -0.0045679999 0.022500001
v  0.015556 -0.0045679999 -0.022500001
v  0.012222 -0.0073040002 0.022500001
v  0.012222 -0.0073040002 -0.022500001
v  0.0084189996 -0.0093369996 0.022500001
v  0.0084189996 -0.0093369996 -0.022500001
v  0.0042920001 -0.010589 0.022500001
v  0.0042920001 -0.010589 -0.022500001
v  1.6940659e-21 -0.011012 0.022500001
v  1.6940659e-21 -0.011012 -0.022500001
v  -0.0042920001 -0.010589 0.022500001
v  -0.0042920001 -0.010589 -0.022500001
v  -0.0084189996 -0.0093369996 0.022500001
v  -0.0084189996 -0.0093369996 -0.022500001
v  -0.012222 -0.0073040002 0.022500001
v  -0.012222 -0.0073040002 -0.022500001
v  -0.015556 -0.0045679999 0.022500001
v  -0.015556 -0.0045679999 -0.022500001
v  -0.018292001 -0.001234 0.022500001
v  -0.018292001 -0.001234 -0.022500001
v  -0.020324999 0.00257 0.022500001
v  -0.020324999 0.00257 -0.022500001
v  -0.021578001 0.0066960002 0.022500001
v  -0.021578001 0.0066960002 -0.022500001
v  -0.022 0.010988 0.022500001
v  -0.022 0.010988 -0.022500001

# 0 UV coordinates

# 19 vertex normals
vn 0.99520111 -0.097850405 -5.7551654e-18
vn 0.95685053 -0.29058048 -2.3176271e-17
vn 0.88194841 -0.47134599 -1.149101e-16
vn 0.77302665 -0.63437355 2.3655208e-17
vn 0.63437355 -0.77302665 7.4793797e-17
vn 0.4714424 -0.88189685 1.1102689e-17
vn 0.2903035 -0.95693463 -1.5463612e-17
vn 0.098080307 -0.99517852 -6.7725155e-17
vn -0.098080307 -0.99517852 -6.7725161e-17
vn -0.2903035 -0.95693463 9.5558677e-17
vn -0.4714424 -0.88189685 1.2212497e-16
vn -0.63437355 -0.77302665 7.4793777e-17
vn -0.77302665 -0.63437355 2.3655198e-17
vn -0.88194841 -0.47134599 -3.8877935e-18
vn -0.95685053 -0.29058048 -7.8687455e-17
vn -0.99520111 -0.097850405 4.9755966e-17
vn 9.3584802e-24 1.323489e-23 1
vn 1.323489e-23 3.3082633e-23 -1
vn 1.110223e-16 1 1.110223e-16

# Mesh '' with 64 faces
# usemtl $Material_0
f  1//1 2//1 3//1
f  4//1 2//1 1//1
f  5//2 4//2 1//2
f  6//2 4//2 5//2
f  7//3 6//3 5//3
f  8//3 6//3 7//3
f  9//4 8//4 7//4
f  10//4 8//4 9//4
f  11//5 10//5 9//5
f  12//5 10//5 11//5
f  12//6 11//6 13//6
f  14//6 12//6 13//6
f  14//7 13//7 15//7
f  16//7 14//7 15//7
f  16//8 15//8 17//8
f  18//8 16//8 17//8
f  18//9 17//9 19//9
f  20//9 18//9 19//9
f  20//10 19//10 21//10
f  22//10 20//10 21//10
f  22//11 21//11 23//11
f  24//11 22//11 23//11
f  24//12 23//12 25//12
f  26//12 24//12 25//12
f  26//13 25//13 27//13
f  28//13 26//13 27//13
f  28//14 27//14 29//14
f  30//14 28//14 29//14
f  30//15 29//15 31//15
f  32//15 30//15 31//15
f  32//16 31//16 33//16
f  32//16 33//16 34//16
f  5//17 1//17 3//17
f  5//17 3//17 33//17
f  5//17 33//17 31//17
f  5//17 31//17 29//17
f  5//17 29//17 27//17
f  25//17 5//17 27//17
f  23//17 5//17 25//17
f  21//17 5//17 23//17
f  19//17 5//17 21//17
f  17//17 5//17 19//17
f  15//17 5//17 17//17
f  13//17 5//17 15//17
f  13//17 11//17 5//17
f  11//17 9//17 5//17
f  9//17 7//17 5//17
f  32//18 34//18 2//18
f  32//18 2//18 4//18
f  32//18 4//18 6//18
f  32//18 6//18 8//18
f  32//18 8//18 10//18
f  32//18 10//18 12//18
f  32//18 12//18 14//18
f  32//18 14//18 16//18
f  32//18 16//18 18//18
f  32//18 18//18 20//18
f  32//18 20//18 22//18
f  32//18 22//18 24//18
f  32//18 24//18 26//18
f  32//18 26//18 28//18
f  32//18 28//18 30//18
f  34//19 3//19 2//19
f  34//19 33//19 3//19

