# File produced by Open Asset Import Library (http://www.assimp.sf.net)
# (assimp v5.0.0)

mtllib rect.mtl

# 8 vertex positions
v  0.022500001 0.045000002 0.022500001
v  -0.022500001 0.045000002 -0.022500001
v  -0.022500001 0.045000002 0.022500001
v  0.022500001 0.045000002 -0.022500001
v  0.022500001 -0.045000002 0.022500001
v  0.022500001 -0.045000002 -0.022500001
v  -0.022500001 -0.045000002 0.022500001
v  -0.022500001 -0.045000002 -0.022500001

# 0 UV coordinates

# 6 vertex normals
vn 0 1 0
vn 1 0 0
vn 0 -1 0
vn -1 0 0
vn 0 0 -1
vn 0 0 1

# Mesh '' with 12 faces
# usemtl $Material_0
f  1//1 2//1 3//1
f  4//1 2//1 1//1
f  5//2 4//2 1//2
f  6//2 4//2 5//2
f  7//3 6//3 5//3
f  7//3 8//3 6//3
f  7//4 3//4 8//4
f  3//4 2//4 8//4
f  6//5 8//5 4//5
f  4//5 8//5 2//5
f  5//6 1//6 3//6
f  7//6 5//6 3//6

