# File produced by Open Asset Import Library (http://www.assimp.sf.net)
# (assimp v5.0.0)

mtllib triangle.mtl

# 6 vertex positions
v  0.022500001 -0.045000002 0.022500001
v  0.022500001 0.045000002 0.022500001
v  -0.022500001 0 0.022500001
v  -0.022500001 0 -0.022500001
v  0.022500001 0.045000002 -0.022500001
v  0.022500001 -0.045000002 -0.022500001

# 0 UV coordinates

# 5 vertex normals
vn 0 0 1
vn 0 0 -1
vn 1 0 0
vn -0.70710677 -0.70710677 0
vn -0.70710677 0.70710677 0

# Mesh '' with 8 faces
# usemtl $Material_0
f  1//1 2//1 3//1
f  4//2 5//2 6//2
f  6//3 2//3 1//3
f  6//3 5//3 2//3
f  6//4 1//4 3//4
f  4//4 6//4 3//4
f  4//5 2//5 5//5
f  4//5 3//5 2//5

