<?xml version="1.0" encoding="UTF-8"?>
<COLLADA xmlns="http://www.collada.org/2005/11/COLLADASchema" version="1.4.1">
    <asset>
        <contributor>
            <author>VCGLab</author>
            <authoring_tool>VCGLib | MeshLab</authoring_tool>
        </contributor>
        <up_axis>Y_UP</up_axis>
        <created>Wed Jul 31 14:54:18 2024</created>
        <modified>Wed Jul 31 14:54:18 2024</modified>
    </asset>
    <library_images>
        <image id="texture0" name="texture0">
            <init_from>robot_cover_pink.png</init_from>
        </image>
    </library_images>
    <library_materials>
        <material id="material0" name="material0">
            <instance_effect url="#material0-fx"/>
        </material>
    </library_materials>
    <library_effects>
        <effect id="material0-fx">
            <profile_COMMON>
                <newparam sid="texture0-surface">
                    <surface type="2D">
                        <init_from>texture0</init_from>
                        <format>A8R8G8B8</format>
                    </surface>
                </newparam>
                <newparam sid="texture0-sampler">
                    <sampler2D>
                        <source>texture0-surface</source>
                        <minfilter>LINEAR</minfilter>
                        <magfilter>LINEAR</magfilter>
                    </sampler2D>
                </newparam>
                <technique sid="common">
                    <blinn>
                        <emission>
                            <color>0 0 0 1</color>
                        </emission>
                        <ambient>
                            <color>1 1 1 1</color>
                        </ambient>
                        <diffuse>
                            <texture texture="texture0" texcoord="UVSET0"/>
                        </diffuse>
                        <specular>
                            <color>0 0 0 1</color>
                        </specular>
                        <shininess>
                            <float>1</float>
                        </shininess>
                        <reflective>
                            <color>0 0 0 1</color>
                        </reflective>
                        <reflectivity>
                            <float>0.5</float>
                        </reflectivity>
                        <transparent>
                            <color>0 0 0 1</color>
                        </transparent>
                        <transparency>
                            <float>0</float>
                        </transparency>
                        <index_of_refraction>
                            <float>0</float>
                        </index_of_refraction>
                    </blinn>
                </technique>
            </profile_COMMON>
        </effect>
    </library_effects>
    <library_geometries>
        <geometry id="shape0-lib" name="shape0">
            <mesh>
                <source id="shape0-lib-positions" name="position">
                    <float_array id="shape0-lib-positions-array" count="156">-17.0806 -6.93548 -59.8 -17.0806 -6.93548 0 -17.0806 6.56452 -59.8 -17.0806 6.56452 0 -17.0137 6.81452 -59.7796 -17.0137 6.81452 0 -16.9467 -7.43548 -59.7592 -16.9467 -7.43548 0 -16.8306 6.99753 -59.7239 -16.8306 6.99753 0 -16.5806 -7.80151 -59.6478 -16.5806 -7.80151 0 -16.5806 7.06452 -59.6478 -16.5806 7.06452 0 -16.0806 -7.93548 -59.4957 -16.0806 -7.93548 0 -11.5806 -6.93548 -68 -11.5806 6.56452 -68 -11.5603 6.75586 -67.9619 -11.54 -7.31817 -67.9239 -11.5025 6.91807 -67.8536 -11.4244 -7.64259 -67.7071 -11.416 7.02646 -67.6913 -11.314 7.06452 -67.5 -11.2514 -7.85936 -67.3827 -11.0473 -7.93548 -67 12.086 -7.93548 -67 12.2901 -7.85936 -67.3827 12.3527 7.06452 -67.5 12.4547 7.02646 -67.6913 12.4631 -7.64259 -67.7071 12.5412 6.91807 -67.8536 12.5788 -7.31817 -67.9239 12.5991 6.75586 -67.9619 12.6194 -6.93548 -68 12.6194 6.56452 -68 17.1194 -7.93548 -59.4957 17.1194 -7.93548 0 17.6194 -7.80151 -59.6478 17.6194 -7.80151 0 17.6194 7.06452 -59.6478 17.6194 7.06452 0 17.8694 6.99753 -59.7239 17.8694 6.99753 0 17.9854 -7.43548 -59.7592 17.9854 -7.43548 0 18.0524 6.81452 -59.7796 18.0524 6.81452 0 18.1194 -6.93548 -59.8 18.1194 -6.93548 0 18.1194 6.56452 -59.8 18.1194 6.56452 0</float_array>
                    <technique_common>
                        <accessor count="52" source="#shape0-lib-positions-array" stride="3">
                            <param name="X" type="float"/>
                            <param name="Y" type="float"/>
                            <param name="Z" type="float"/>
                        </accessor>
                    </technique_common>
                </source>
                <source id="shape0-lib-normals" name="normal">
                    <float_array id="shape0-lib-normals-array" count="300">0.81453 0.195096 -0.546331 0.802891 0.258916 -0.536963 0.689926 0.555777 -0.463803 0.587992 0.707376 -0.39228 0.460636 0.831684 -0.310027 0.215375 0.966025 -0.142861 0.16202 0.980785 -0.108672 -0.965927 0.258815 0 -0.965927 0.258815 0 -0.707104 0.70711 0 -0.707104 0.70711 0 -0.25882 0.965926 0 -0.25882 0.965926 0 0 0.195105 -0.980782 0 0.195105 -0.980782 0 0.55556 -0.831477 0 0.55556 -0.831477 0 0.831464 -0.555578 0 0.831464 -0.555578 0 0.980786 -0.195089 0 0.980786 -0.195089 -0.162021 0.980785 -0.108672 -0.215375 0.966025 -0.142861 -0.460636 0.831684 -0.310027 -0.587992 0.707376 -0.39228 -0.689926 0.555777 -0.463803 -0.802891 0.258916 -0.536963 -0.81453 0.195101 -0.546331 0.25882 0.965926 0 0.25882 0.965926 0 0.707104 0.70711 0 0.707104 0.70711 0 0.965927 0.258815 0 0.965927 0.258815 0 0 1 0 0 1 0 0 1 0 0 1 0 0 0 1 0 0 1 0 0 1 0 0 1 0 0 1 0 0 1 0 0 1 0 0 1 0 0 1 0 0 1 0 0 1 0 0 1 0 0 1 0 0 1 0 -1 0 0 -1 0 0 -1 0 0 -1 0 1 0 0 1 0 0 0.830489 0 -0.557035 0.830489 0 -0.557035 0 0 -1 0 0 -1 -0.830489 0 -0.557035 -0.830489 0 -0.557035 -1 0 0 -1 0 0 0 -0.195085 -0.980786 0 -0.195085 -0.980786 0 -0.555573 -0.831468 0 -0.555573 -0.831468 0 -0.83147 -0.555569 0 -0.83147 -0.555569 0 -0.980785 -0.195089 0 -0.980785 -0.195089 0.162019 -0.980786 -0.108672 0.215821 -0.96613 -0.141474 0.459834 -0.831913 -0.310601 0.588764 -0.707643 -0.390638 0.68931 -0.556002 -0.46445 0.803595 -0.25901 -0.535862 0.814532 -0.195087 -0.546332 -0.814532 -0.195085 -0.546332 -0.803596 -0.25901 -0.535862 -0.689308 -0.556005 -0.464449 -0.588764 -0.707643 -0.390638 -0.459834 -0.831913 -0.310601 -0.215821 -0.96613 -0.141474 -0.162019 -0.980786 -0.108672 0.965926 -0.258818 0 0.965926 -0.258818 0 0.707107 -0.707107 0 0.707107 -0.707107 0 0.258818 -0.965926 0 0.258818 -0.965926 0 -0.258818 -0.965926 0 -0.258818 -0.965926 0 -0.707107 -0.707107 0 -0.707107 -0.707107 0 -0.965926 -0.258818 0 -0.965926 -0.258818 0</float_array>
                    <technique_common>
                        <accessor count="100" source="#shape0-lib-normals-array" stride="3">
                            <param name="X" type="float"/>
                            <param name="Y" type="float"/>
                            <param name="Z" type="float"/>
                        </accessor>
                    </technique_common>
                </source>
                <source id="shape0-lib-vcolor" name="vcolor">
                    <float_array id="shape0-lib-vcolor-array" count="156">0.74902 0.74902 0.74902 0.74902 0.74902 0.74902 0.74902 0.74902 0.74902 0.74902 0.74902 0.74902 0.74902 0.74902 0.74902 0.74902 0.74902 0.74902 0.74902 0.74902 0.74902 0.74902 0.74902 0.74902 0.74902 0.74902 0.74902 0.74902 0.74902 0.74902 0.74902 0.74902 0.74902 0.74902 0.74902 0.74902 0.74902 0.74902 0.74902 0.74902 0.74902 0.74902 0.74902 0.74902 0.74902 0.74902 0.74902 0.74902 0.74902 0.74902 0.74902 0.74902 0.74902 0.74902 0.74902 0.74902 0.74902 0.74902 0.74902 0.74902 0.74902 0.74902 0.74902 0.74902 0.74902 0.74902 0.74902 0.74902 0.74902 0.74902 0.74902 0.74902 0.74902 0.74902 0.74902 0.74902 0.74902 0.74902 0.74902 0.74902 0.74902 0.74902 0.74902 0.74902 0.74902 0.74902 0.74902 0.74902 0.74902 0.74902 0.74902 0.74902 0.74902 0.74902 0.74902 0.74902 0.74902 0.74902 0.74902 0.74902 0.74902 0.74902 0.74902 0.74902 0.74902 0.74902 0.74902 0.74902 0.74902 0.74902 0.74902 0.74902 0.74902 0.74902 0.74902 0.74902 0.74902 0.74902 0.74902 0.74902 0.74902 0.74902 0.74902 0.74902 0.74902 0.74902 0.74902 0.74902 0.74902 0.74902 0.74902 0.74902 0.74902 0.74902 0.74902 0.74902 0.74902 0.74902 0.74902 0.74902 0.74902 0.74902 0.74902 0.74902 0.74902 0.74902 0.74902 0.74902 0.74902 0.74902 0.74902 0.74902 0.74902 0.74902 0.74902 0.74902</float_array>
                    <technique_common>
                        <accessor count="52" source="#shape0-lib-vcolor-array" stride="3">
                            <param name="R" type="float"/>
                            <param name="G" type="float"/>
                            <param name="B" type="float"/>
                        </accessor>
                    </technique_common>
                </source>
                <source id="shape0-lib-map" name="map">
                    <float_array id="shape0-lib-map-array" count="600">0 0.84375 0.00056 0.843173 0.120588 1 0.120588 1 0.00056 0.843173 0.120888 0.998097 0.120888 0.998097 0.00056 0.843173 0.002154 0.841531 0.120888 0.998097 0.002154 0.841531 0.121707 0.992898 0.121707 0.992898 0.002154 0.841531 0.004539 0.839073 0.121707 0.992898 0.004539 0.839073 0.122826 0.985795 0.122826 0.985795 0.004539 0.839073 0.007353 0.836174 0.120588 0 1 0 0.120888 0.001903 0.120888 0.001903 1 0 1 0.001903 0.120888 0.001903 1 0.001903 0.121707 0.007102 0.121707 0.007102 1 0.001903 1 0.007102 0.121707 0.007102 1 0.007102 0.122826 0.014205 0.122826 0.014205 1 0.007102 1 0.014205 0 0.84375 0 0.15625 0.00056 0.843173 0.00056 0.843173 0 0.15625 0.00056 0.156827 0.00056 0.843173 0.00056 0.156827 0.002154 0.158469 0.00056 0.843173 0.002154 0.158469 0.002154 0.841531 0.002154 0.841531 0.002154 0.158469 0.004539 0.160927 0.002154 0.841531 0.004539 0.160927 0.004539 0.839073 0.004539 0.839073 0.004539 0.160927 0.007353 0.836174 0.007353 0.836174 0.004539 0.160927 0.007353 0.163826 0.007353 0.163826 0.004539 0.160927 0.122826 0.014205 0.122826 0.014205 0.004539 0.160927 0.121707 0.007102 0.121707 0.007102 0.004539 0.160927 0.002154 0.158469 0.121707 0.007102 0.002154 0.158469 0.120888 0.001903 0.120888 0.001903 0.002154 0.158469 0.00056 0.156827 0.120888 0.001903 0.00056 0.156827 0.120588 0 0.120588 0 0.00056 0.156827 0 0.15625 1 0.985795 1 0.992898 0.122826 0.985795 0.122826 0.985795 1 0.992898 0.121707 0.992898 0.121707 0.992898 1 0.992898 1 0.998097 0.121707 0.992898 1 0.998097 0.120888 0.998097 0.120888 0.998097 1 0.998097 1 1 0.120888 0.998097 1 1 0.120588 1 0.122826 0.985795 0.007353 0.836174 1 0.985795 1 0.985795 0.007353 0.836174 0.007353 0.163826 1 0.985795 0.007353 0.163826 1 0.014205 1 0.014205 0.007353 0.163826 0.122826 0.014205 1 0.985795 1 0.996194 1 0.971591 1 0.971591 1 0.996194 1 1 1 0.971591 1 1 1 0 1 0 1 1 1 0 1 0 1 1 1 1 1 0 1 1 1 0.014205 1 0.014205 1 1 1 0.985795 1 0.985795 1 1 1 0.998097 1 0.985795 1 0.998097 1 0.992898 1 0.007102 1 0.001903 1 0.014205 1 0.014205 1 0.001903 1 0 1 0.971591 1 0 1 0.028409 1 0.028409 1 0 1 0.003806 1 0.028409 1 0.003806 1 0.014205 0.125063 0.971591 1 0.971591 0.014706 0.828597 0.014706 0.828597 1 0.971591 1 0.028409 0.014706 0.828597 1 0.028409 0.014706 0.171403 0.014706 0.171403 1 0.028409 0.125063 0.028409 0.120588 1 0.120588 1 1 1 1 1 0.120588 1 1 1 0.120588 1 0 0.84375 0.120588 1 0.120588 1 0 0.84375 0 0.84375 0 0.84375 0 0.15625 0 0.84375 0 0.84375 0 0.15625 0 0.15625 0 0.15625 0.120588 0 0 0.15625 0 0.15625 0.120588 0 0.120588 0 1 0 1 0 0.120588 0 0.120588 0 1 0 0.120588 0 0 0.15625 0 0.84375 0.001119 0.157403 0.001119 0.157403 0 0.84375 0.001119 0.842597 0.001119 0.157403 0.001119 0.842597 0.004307 0.839312 0.001119 0.157403 0.004307 0.839312 0.004307 0.160688 0.004307 0.160688 0.004307 0.839312 0.009078 0.834396 0.004307 0.160688 0.009078 0.834396 0.009078 0.165604 0.009078 0.165604 0.009078 0.834396 0.014706 0.171403 0.014706 0.171403 0.009078 0.834396 0.014706 0.828597 0.014706 0.828597 0.009078 0.834396 0.125063 0.971591 0.125063 0.971591 0.009078 0.834396 0.122826 0.985795 0.122826 0.985795 0.009078 0.834396 0.004307 0.839312 0.122826 0.985795 0.004307 0.839312 0.121188 0.996194 0.121188 0.996194 0.004307 0.839312 0.001119 0.842597 0.121188 0.996194 0.001119 0.842597 0.120588 1 0.120588 1 0.001119 0.842597 0 0.84375 0 0.15625 0.001119 0.157403 0.120588 0 0.120588 0 0.001119 0.157403 0.121188 0.003806 0.121188 0.003806 0.001119 0.157403 0.004307 0.160688 0.121188 0.003806 0.004307 0.160688 0.122826 0.014205 0.122826 0.014205 0.004307 0.160688 0.009078 0.165604 0.122826 0.014205 0.009078 0.165604 0.125063 0.028409 0.125063 0.028409 0.009078 0.165604 0.014706 0.171403 0.120588 1 1 1 0.121188 0.996194 0.121188 0.996194 1 1 1 0.996194 0.121188 0.996194 1 0.996194 0.122826 0.985795 0.122826 0.985795 1 0.996194 1 0.985795 0.122826 0.985795 1 0.985795 0.125063 0.971591 0.125063 0.971591 1 0.985795 1 0.971591 1 0.028409 1 0.014205 0.125063 0.028409 0.125063 0.028409 1 0.014205 0.122826 0.014205 0.122826 0.014205 1 0.014205 1 0.003806 0.122826 0.014205 1 0.003806 0.121188 0.003806 0.121188 0.003806 1 0.003806 1 0 0.121188 0.003806 1 0 0.120588 0</float_array>
                    <technique_common>
                        <accessor count="300" source="#shape0-lib-map-array" stride="2">
                            <param name="U" type="float"/>
                            <param name="V" type="float"/>
                        </accessor>
                    </technique_common>
                </source>
                <vertices id="shape0-lib-vertices">
                    <input semantic="POSITION" source="#shape0-lib-positions"/>
                </vertices>
                <triangles count="100" material="material0">
                    <input offset="0" semantic="VERTEX" source="#shape0-lib-vertices"/>
                    <input offset="1" semantic="COLOR" source="#shape0-lib-vcolor"/>
                    <input offset="2" semantic="NORMAL" source="#shape0-lib-normals"/>
                    <input offset="3" semantic="TEXCOORD" source="#shape0-lib-map"/>
                    <p>35 35 0 0 33 33 0 1 50 50 0 2 50 50 1 3 33 33 1 4 46 46 1 5 46 46 2 6 33 33 2 7 31 31 2 8 46 46 3 9 31 31 3 10 42 42 3 11 42 42 4 12 31 31 4 13 29 29 4 14 42 42 5 15 29 29 5 16 40 40 5 17 40 40 6 18 29 29 6 19 28 28 6 20 2 2 7 21 3 3 7 22 4 4 7 23 4 4 8 24 3 3 8 25 5 5 8 26 4 4 9 27 5 5 9 28 8 8 9 29 8 8 10 30 5 5 10 31 9 9 10 32 8 8 11 33 9 9 11 34 12 12 11 35 12 12 12 36 9 9 12 37 13 13 12 38 35 35 13 39 17 17 13 40 33 33 13 41 33 33 14 42 17 17 14 43 18 18 14 44 33 33 15 45 18 18 15 46 20 20 15 47 33 33 16 48 20 20 16 49 31 31 16 50 31 31 17 51 20 20 17 52 22 22 17 53 31 31 18 54 22 22 18 55 29 29 18 56 29 29 19 57 22 22 19 58 28 28 19 59 28 28 20 60 22 22 20 61 23 23 20 62 23 23 21 63 22 22 21 64 12 12 21 65 12 12 22 66 22 22 22 67 8 8 22 68 8 8 23 69 22 22 23 70 20 20 23 71 8 8 24 72 20 20 24 73 4 4 24 74 4 4 25 75 20 20 25 76 18 18 25 77 4 4 26 78 18 18 26 79 2 2 26 80 2 2 27 81 18 18 27 82 17 17 27 83 41 41 28 84 43 43 28 85 40 40 28 86 40 40 29 87 43 43 29 88 42 42 29 89 42 42 30 90 43 43 30 91 47 47 30 92 42 42 31 93 47 47 31 94 46 46 31 95 46 46 32 96 47 47 32 97 51 51 32 98 46 46 33 99 51 51 33 100 50 50 33 101 40 40 34 102 28 28 34 103 41 41 34 104 41 41 35 105 28 28 35 106 23 23 35 107 41 41 36 108 23 23 36 109 13 13 36 110 13 13 37 111 23 23 37 112 12 12 37 113 39 39 38 114 45 45 38 115 37 37 38 116 37 37 39 117 45 45 39 118 49 49 39 119 37 37 40 120 49 49 40 121 1 1 40 122 1 1 41 123 49 49 41 124 3 3 41 125 3 3 42 126 49 49 42 127 51 51 42 128 3 3 43 129 51 51 43 130 13 13 43 131 13 13 44 132 51 51 44 133 41 41 44 134 41 41 45 135 51 51 45 136 47 47 45 137 41 41 46 138 47 47 46 139 43 43 46 140 9 9 47 141 5 5 47 142 13 13 47 143 13 13 48 144 5 5 48 145 3 3 48 146 37 37 49 147 1 1 49 148 15 15 49 149 15 15 50 150 1 1 50 151 7 7 50 152 15 15 51 153 7 7 51 154 11 11 51 155 36 36 52 156 37 37 52 157 26 26 52 158 26 26 53 159 37 37 53 160 15 15 53 161 26 26 54 162 15 15 54 163 25 25 54 164 25 25 55 165 15 15 55 166 14 14 55 167 48 48 56 168 50 50 56 169 49 49 56 170 49 49 57 171 50 50 57 172 51 51 57 173 48 48 58 174 34 34 58 175 50 50 58 176 50 50 59 177 34 34 59 178 35 35 59 179 34 34 60 180 16 16 60 181 35 35 60 182 35 35 61 183 16 16 61 184 17 17 61 185 16 16 62 186 0 0 62 187 17 17 62 188 17 17 63 189 0 0 63 190 2 2 63 191 1 1 64 192 3 3 64 193 0 0 64 194 0 0 65 195 3 3 65 196 2 2 65 197 16 16 66 198 34 34 66 199 19 19 66 200 19 19 67 201 34 34 67 202 32 32 67 203 19 19 68 204 32 32 68 205 30 30 68 206 19 19 69 207 30 30 69 208 21 21 69 209 21 21 70 210 30 30 70 211 27 27 70 212 21 21 71 213 27 27 71 214 24 24 71 215 24 24 72 216 27 27 72 217 25 25 72 218 25 25 73 219 27 27 73 220 26 26 73 221 26 26 74 222 27 27 74 223 36 36 74 224 36 36 75 225 27 27 75 226 38 38 75 227 38 38 76 228 27 27 76 229 30 30 76 230 38 38 77 231 30 30 77 232 44 44 77 233 44 44 78 234 30 30 78 235 32 32 78 236 44 44 79 237 32 32 79 238 48 48 79 239 48 48 80 240 32 32 80 241 34 34 80 242 16 16 81 243 19 19 81 244 0 0 81 245 0 0 82 246 19 19 82 247 6 6 82 248 6 6 83 249 19 19 83 250 21 21 83 251 6 6 84 252 21 21 84 253 10 10 84 254 10 10 85 255 21 21 85 256 24 24 85 257 10 10 86 258 24 24 86 259 14 14 86 260 14 14 87 261 24 24 87 262 25 25 87 263 48 48 88 264 49 49 88 265 44 44 88 266 44 44 89 267 49 49 89 268 45 45 89 269 44 44 90 270 45 45 90 271 38 38 90 272 38 38 91 273 45 45 91 274 39 39 91 275 38 38 92 276 39 39 92 277 36 36 92 278 36 36 93 279 39 39 93 280 37 37 93 281 15 15 94 282 11 11 94 283 14 14 94 284 14 14 95 285 11 11 95 286 10 10 95 287 10 10 96 288 11 11 96 289 7 7 96 290 10 10 97 291 7 7 97 292 6 6 97 293 6 6 98 294 7 7 98 295 1 1 98 296 6 6 99 297 1 1 99 298 0 0 99 299</p>
                </triangles>
            </mesh>
        </geometry>
    </library_geometries>
    <library_visual_scenes>
        <visual_scene id="VisualSceneNode" name="VisualScene">
            <node id="node" name="node">
                <instance_geometry url="#shape0-lib">
                    <bind_material>
                        <technique_common>
                            <instance_material symbol="material0" target="#material0">
                                <bind_vertex_input semantic="UVSET0" input_semantic="TEXCOORD"/>
                            </instance_material>
                        </technique_common>
                    </bind_material>
                </instance_geometry>
            </node>
        </visual_scene>
    </library_visual_scenes>
    <scene>
        <instance_visual_scene url="#VisualSceneNode"/>
    </scene>
</COLLADA>
